<svg xmlns="http://www.w3.org/2000/svg" version="1.1" xmlns:xlink="http://www.w3.org/1999/xlink" xmlns:svgjs="http://svgjs.dev/svgjs" width="1920" height="1080" preserveAspectRatio="none" viewBox="0 0 1920 1080"><g mask="url(&quot;#SvgjsMask2679&quot;)" fill="none"><rect width="1920" height="1080" x="0" y="0" fill="url(&quot;#SvgjsLinearGradient2680&quot;)"></rect><path d="M1829.9182616434923 977.9794701235762L1981.7032174426322 769.0654011621239 1772.7891484811798 617.280445362984 1621.00419268204 826.1945143244363z" fill="rgba(34, 15, 200, 0.2)" class="triangle-float2"></path><path d="M1752.9442805000022 846.8970456266943L1602.342800110833 729.2342736680031 1501.149382367381 1013.9678802311025z" fill="rgba(34, 15, 200, 0.2)" class="triangle-float3"></path><path d="M1063.929,332.969C1119.453,333.204,1161.192,288.495,1188.641,240.231C1215.709,192.637,1229.991,135.566,1203.426,87.689C1176.197,38.617,1120.007,13.311,1063.929,15.471C1011.379,17.496,967.205,51.673,941.884,97.765C917.557,142.047,917.761,194.337,941.031,239.183C966.47,288.208,1008.697,332.735,1063.929,332.969" fill="rgba(34, 15, 200, 0.2)" class="triangle-float2"></path><path d="M625.0140900391314 154.23452533708826L437.56862102529135 147.50992194365426 512.0059156550521 293.6013383854049z" fill="rgba(34, 15, 200, 0.2)" class="triangle-float1"></path><path d="M401.2535672158887 105.69779949684315L438.86249657233265 268.59996966193694 564.1557373809825 68.08887014039922z" fill="rgba(34, 15, 200, 0.2)" class="triangle-float1"></path><path d="M473.821,1425.545C575.163,1433.478,673.153,1377.704,723.733,1289.529C774.085,1201.751,770.837,1090.323,714.23,1006.443C663.119,930.707,565.169,917.269,473.821,919.208C386.832,921.055,293.345,940.579,250.464,1016.287C208.017,1091.228,242.326,1179.474,283.586,1255.075C327.305,1335.181,382.839,1418.423,473.821,1425.545" fill="rgba(34, 15, 200, 0.2)" class="triangle-float2"></path><path d="M1093.935,1068.166C1190.751,1068.182,1298.204,1066.713,1352.305,986.424C1411.445,898.658,1407.51,778.144,1348.607,690.219C1294.933,610.099,1190.256,596.012,1093.935,600.749C1007.438,605.003,927.435,641.347,879.247,713.304C824.283,795.379,784.579,901.824,835.71,986.34C885.804,1069.142,997.159,1068.15,1093.935,1068.166" fill="rgba(34, 15, 200, 0.2)" class="triangle-float3"></path><path d="M702.0569734948342 1118.9986655303085L854.4737417373611 1054.3015858433 681.2197380855849 858.0249733230139z" fill="rgba(34, 15, 200, 0.2)" class="triangle-float1"></path><path d="M1924.093,608.55C1985.466,605.882,2039.46,572.924,2071.96,520.794C2106.72,465.038,2126.454,394.448,2092.725,338.062C2059.615,282.71,1988.585,272.672,1924.093,273.596C1861.67,274.491,1797.967,290.64,1763.631,342.779C1725.854,400.144,1716.645,475.894,1752.147,534.695C1786.703,591.929,1857.299,611.453,1924.093,608.55" fill="rgba(34, 15, 200, 0.2)" class="triangle-float2"></path><path d="M1940.921582335864 237.93065571983388L1944.0938982537227 56.1887985050553 1762.3520410389442 53.01648258719655 1759.1797251210855 234.75833980197513z" fill="rgba(34, 15, 200, 0.2)" class="triangle-float2"></path><path d="M191.487,203.037C221.744,203.883,251.993,191.729,267.583,165.784C283.605,139.12,282.558,105.173,266.185,78.723C250.603,53.551,221.086,42.276,191.487,42.853C162.975,43.409,135.994,56.883,121.668,81.54C107.275,106.311,108.145,136.887,122.419,161.727C136.745,186.657,162.745,202.234,191.487,203.037" fill="rgba(34, 15, 200, 0.2)" class="triangle-float2"></path></g><defs><mask id="SvgjsMask2679"><rect width="1920" height="1080" fill="#ffffff"></rect></mask><linearGradient x1="89.06%" y1="119.44%" x2="10.94%" y2="-19.44%" gradientUnits="userSpaceOnUse" id="SvgjsLinearGradient2680"><stop stop-color="rgba(14, 42, 71, 1)" offset="0"></stop><stop stop-color="rgba(168, 137, 233, 0.63)" offset="0.18"></stop><stop stop-color="rgba(182, 137, 233, 0.8)" offset="0.68"></stop><stop stop-color="rgba(211, 116, 216, 0.76)" offset="0.92"></stop></linearGradient><style>
                @keyframes float1 {
                    0%{transform: translate(0, 0)}
                    50%{transform: translate(-10px, 0)}
                    100%{transform: translate(0, 0)}
                }

                .triangle-float1 {
                    animation: float1 5s infinite;
                }

                @keyframes float2 {
                    0%{transform: translate(0, 0)}
                    50%{transform: translate(-5px, -5px)}
                    100%{transform: translate(0, 0)}
                }

                .triangle-float2 {
                    animation: float2 4s infinite;
                }

                @keyframes float3 {
                    0%{transform: translate(0, 0)}
                    50%{transform: translate(0, -10px)}
                    100%{transform: translate(0, 0)}
                }

                .triangle-float3 {
                    animation: float3 6s infinite;
                }
            </style></defs></svg>