<svg xmlns="http://www.w3.org/2000/svg" xmlns:xlink="http://www.w3.org/1999/xlink" width="405.86" height="827.256" viewBox="0 0 405.86 827.256">
  <defs>
    <linearGradient id="linear-gradient" y1="0.564" x2="1" y2="0.577" gradientUnits="objectBoundingBox">
      <stop offset="0" stop-color="#4a328a"/>
      <stop offset="1" stop-color="#e54f95"/>
    </linearGradient>
    <radialGradient id="radial-gradient" cx="0.499" cy="0.187" r="2.325" gradientTransform="translate(0.409 0.127) scale(0.18 0.28)" gradientUnits="objectBoundingBox">
      <stop offset="0" stop-color="#b3b2b2"/>
      <stop offset="1" stop-color="#fff"/>
    </radialGradient>
    <linearGradient id="linear-gradient-2" x1="0.472" y1="-0.215" x2="0.501" y2="0.732" gradientUnits="objectBoundingBox">
      <stop offset="0" stop-color="#ae2015"/>
      <stop offset="1" stop-color="#e52521"/>
    </linearGradient>
    <linearGradient id="linear-gradient-3" x1="0.477" y1="-0.283" x2="0.511" y2="0.696" xlink:href="#linear-gradient-2"/>
    <linearGradient id="linear-gradient-4" x1="0.47" y1="-0.328" x2="0.499" y2="0.656" xlink:href="#linear-gradient-2"/>
    <linearGradient id="linear-gradient-5" x1="-0.008" y1="0.519" x2="1.808" y2="0.468" gradientUnits="objectBoundingBox">
      <stop offset="0" stop-color="#066938"/>
      <stop offset="1" stop-color="#67b32e"/>
    </linearGradient>
    <linearGradient id="linear-gradient-6" y1="0.5" x2="1" y2="0.5" gradientUnits="objectBoundingBox">
      <stop offset="0" stop-color="#4d413c"/>
      <stop offset="1" stop-color="#3c3030"/>
    </linearGradient>
    <linearGradient id="linear-gradient-7" x1="0.307" y1="0.263" x2="1.357" y2="1.563" xlink:href="#linear-gradient-5"/>
    <linearGradient id="linear-gradient-8" x1="1.234" y1="0.357" x2="-0.053" y2="0.586" xlink:href="#linear-gradient-5"/>
    <linearGradient id="linear-gradient-9" y1="0.501" x2="1" y2="0.501" gradientUnits="objectBoundingBox">
      <stop offset="0" stop-color="#dba374"/>
      <stop offset="1" stop-color="#f9c196"/>
    </linearGradient>
    <linearGradient id="linear-gradient-10" x1="0" y1="0.5" x2="1" y2="0.5" xlink:href="#linear-gradient-9"/>
    <linearGradient id="linear-gradient-11" x1="-0.428" y1="0.48" x2="0.914" y2="0.51" gradientUnits="objectBoundingBox">
      <stop offset="0" stop-color="#6a1a68"/>
      <stop offset="1" stop-color="#192833"/>
    </linearGradient>
    <linearGradient id="linear-gradient-12" x1="-1.639" y1="-0.395" x2="-0.617" y2="0.028" xlink:href="#linear-gradient-9"/>
    <linearGradient id="linear-gradient-13" x1="0.001" y1="0.5" x2="1" y2="0.5" gradientUnits="objectBoundingBox">
      <stop offset="0" stop-color="#d42987"/>
      <stop offset="1" stop-color="#812c87"/>
    </linearGradient>
    <linearGradient id="linear-gradient-14" x1="0" y1="0.5" x2="1" y2="0.5" xlink:href="#linear-gradient-13"/>
    <linearGradient id="linear-gradient-15" x1="-1.141" y1="0.378" x2="1.169" y2="0.535" xlink:href="#linear-gradient-9"/>
    <linearGradient id="linear-gradient-16" x1="-0.164" y1="0.404" x2="0.539" y2="0.499" xlink:href="#linear-gradient-9"/>
    <linearGradient id="linear-gradient-17" x1="-0.338" y1="0.392" x2="2.8" y2="0.734" xlink:href="#linear-gradient-9"/>
    <linearGradient id="linear-gradient-18" x1="-2.411" y1="0.166" x2="6.322" y2="1.12" xlink:href="#linear-gradient-9"/>
    <linearGradient id="linear-gradient-19" x1="0.001" y1="0.501" x2="1.001" y2="0.501" xlink:href="#linear-gradient-13"/>
    <linearGradient id="linear-gradient-20" x1="-16.242" y1="-15.667" x2="-17.331" y2="-13.089" gradientUnits="objectBoundingBox">
      <stop offset="0" stop-color="#2faae1"/>
      <stop offset="1" stop-color="#0a72b9"/>
    </linearGradient>
    <linearGradient id="linear-gradient-21" x1="-88.814" y1="-42.937" x2="-89.906" y2="-44.379" xlink:href="#linear-gradient-9"/>
    <linearGradient id="linear-gradient-22" x1="-170.435" y1="-43.012" x2="-172.523" y2="-44.462" xlink:href="#linear-gradient-9"/>
    <linearGradient id="linear-gradient-23" x1="-147.394" y1="-107.849" x2="-149.189" y2="-111.462" xlink:href="#linear-gradient-9"/>
    <linearGradient id="linear-gradient-24" x1="-157.888" y1="-127.19" x2="-159.81" y2="-131.449" xlink:href="#linear-gradient-9"/>
    <linearGradient id="linear-gradient-25" x1="-165.858" y1="-75.197" x2="-167.878" y2="-77.715" xlink:href="#linear-gradient-9"/>
    <linearGradient id="linear-gradient-26" x1="-120.364" y1="-14.985" x2="-119.468" y2="-15.63" xlink:href="#linear-gradient-9"/>
    <linearGradient id="linear-gradient-27" x1="-321.412" y1="-23.166" x2="-319.031" y2="-24.156" xlink:href="#linear-gradient-9"/>
    <linearGradient id="linear-gradient-28" x1="-253.836" y1="-24.62" x2="-251.944" y2="-25.704" xlink:href="#linear-gradient-9"/>
    <linearGradient id="linear-gradient-29" x1="-195.237" y1="-28.835" x2="-193.777" y2="-30.099" xlink:href="#linear-gradient-9"/>
    <linearGradient id="linear-gradient-30" x1="-165.06" y1="-33.531" x2="-163.821" y2="-34.987" xlink:href="#linear-gradient-9"/>
    <linearGradient id="linear-gradient-31" x1="-26.257" y1="-3.004" x2="-28.113" y2="-2.34" xlink:href="#linear-gradient-20"/>
    <linearGradient id="linear-gradient-32" x1="-21.223" y1="-2.689" x2="-20.165" y2="-2.689" xlink:href="#linear-gradient-13"/>
    <linearGradient id="linear-gradient-33" x1="-11.197" y1="-1.626" x2="-11.867" y2="-1.331" xlink:href="#linear-gradient-20"/>
    <linearGradient id="linear-gradient-34" x1="-20.419" y1="-2.048" x2="-19.391" y2="-2.048" xlink:href="#linear-gradient-13"/>
    <linearGradient id="linear-gradient-35" x1="-20.195" y1="-2.861" x2="-19.286" y2="-2.861" xlink:href="#linear-gradient-9"/>
    <linearGradient id="linear-gradient-36" x1="-128.622" y1="-25.869" x2="-127.793" y2="-25.869" xlink:href="#linear-gradient-20"/>
    <linearGradient id="linear-gradient-37" x1="-126.359" y1="-16.812" x2="-125.377" y2="-16.812" xlink:href="#linear-gradient-20"/>
    <linearGradient id="linear-gradient-38" x1="-151.155" y1="-18.323" x2="-149.863" y2="-18.323" gradientUnits="objectBoundingBox">
      <stop offset="0" stop-color="#915529"/>
      <stop offset="1" stop-color="#5b372a"/>
    </linearGradient>
    <linearGradient id="linear-gradient-39" x1="-95.084" y1="-43.674" x2="-94.03" y2="-43.674" xlink:href="#linear-gradient-38"/>
    <linearGradient id="linear-gradient-40" x1="-89.877" y1="-16.477" x2="-88.937" y2="-16.477" xlink:href="#linear-gradient-38"/>
    <linearGradient id="linear-gradient-41" x1="-0.572" y1="-0.085" x2="0.06" y2="0.259" xlink:href="#linear-gradient-9"/>
    <linearGradient id="linear-gradient-42" x1="0.498" y1="0.008" x2="0.503" y2="0.918" gradientUnits="objectBoundingBox">
      <stop offset="0" stop-color="#fff"/>
      <stop offset="1" stop-color="#e5e5e4"/>
    </linearGradient>
    <linearGradient id="linear-gradient-43" x1="0.508" y1="1.114" x2="0.5" y2="0.365" xlink:href="#linear-gradient-2"/>
    <linearGradient id="linear-gradient-44" x1="0.504" y1="1.092" x2="0.496" y2="0.346" xlink:href="#linear-gradient-2"/>
    <linearGradient id="linear-gradient-45" x1="0.507" y1="1.069" x2="0.5" y2="0.332" xlink:href="#linear-gradient-2"/>
    <linearGradient id="linear-gradient-46" x1="-22.009" y1="0.54" x2="-20.972" y2="0.495" xlink:href="#linear-gradient-38"/>
    <linearGradient id="linear-gradient-47" x1="-69.509" y1="0.753" x2="-66.243" y2="0.448" xlink:href="#linear-gradient-38"/>
    <linearGradient id="linear-gradient-48" x1="0.142" y1="0.476" x2="0.431" y2="0.49" xlink:href="#linear-gradient-9"/>
    <linearGradient id="linear-gradient-49" x1="-0.044" y1="0.304" x2="0.935" y2="0.62" xlink:href="#linear-gradient-9"/>
    <linearGradient id="linear-gradient-50" x1="-2.021" y1="0.152" x2="-0.415" y2="0.368" xlink:href="#linear-gradient-9"/>
    <linearGradient id="linear-gradient-51" x1="-0.325" y1="0.33" x2="-0.105" y2="0.805" xlink:href="#linear-gradient-9"/>
    <linearGradient id="linear-gradient-52" x1="0.5" y1="0.373" x2="0.5" y2="0.931" xlink:href="#linear-gradient-9"/>
    <linearGradient id="linear-gradient-54" x1="-0.09" y1="0.474" x2="0.978" y2="0.474" gradientUnits="objectBoundingBox">
      <stop offset="0" stop-color="#761b0e"/>
      <stop offset="1" stop-color="#411519"/>
    </linearGradient>
    <linearGradient id="linear-gradient-55" x1="12.433" y1="-33.417" x2="11.672" y2="-32.042" gradientUnits="objectBoundingBox">
      <stop offset="0" stop-color="#761b0e"/>
      <stop offset="1" stop-color="#eb5b28"/>
    </linearGradient>
    <linearGradient id="linear-gradient-56" x1="12.617" y1="-31.483" x2="11.85" y2="-30.448" xlink:href="#linear-gradient-55"/>
    <linearGradient id="linear-gradient-57" x1="11.594" y1="-29.724" x2="10.841" y2="-28.517" xlink:href="#linear-gradient-55"/>
    <linearGradient id="linear-gradient-58" x1="-0.197" y1="0.829" x2="0.87" y2="0.829" xlink:href="#linear-gradient-9"/>
    <linearGradient id="linear-gradient-59" x1="-0.393" y1="1.318" x2="0.688" y2="1.318" xlink:href="#linear-gradient-9"/>
    <linearGradient id="linear-gradient-60" x1="0.032" y1="0.803" x2="0.441" y2="-0.057" xlink:href="#linear-gradient-9"/>
    <linearGradient id="linear-gradient-61" x1="0.253" y1="0.443" x2="1.275" y2="0.443" gradientUnits="objectBoundingBox">
      <stop offset="0" stop-color="#066938"/>
      <stop offset="1" stop-color="#029245"/>
    </linearGradient>
    <linearGradient id="linear-gradient-62" x1="0.02" y1="1.27" x2="-0.457" y2="2.594" xlink:href="#linear-gradient-9"/>
    <linearGradient id="linear-gradient-63" x1="1.428" y1="-1.127" x2="0.045" y2="0.948" xlink:href="#linear-gradient-61"/>
    <linearGradient id="linear-gradient-64" x1="-3.852" y1="4.706" x2="-1.769" y2="0.25" xlink:href="#linear-gradient-9"/>
    <linearGradient id="linear-gradient-65" x1="-12.933" y1="6.001" x2="-6.925" y2="0.487" xlink:href="#linear-gradient-9"/>
    <linearGradient id="linear-gradient-66" x1="-7.864" y1="8.114" x2="-4.344" y2="0.944" xlink:href="#linear-gradient-9"/>
    <linearGradient id="linear-gradient-67" x1="-6.894" y1="10.516" x2="-3.739" y2="0.8" xlink:href="#linear-gradient-9"/>
    <linearGradient id="linear-gradient-68" x1="-6.102" y1="13.689" x2="-3.164" y2="0.125" xlink:href="#linear-gradient-9"/>
    <linearGradient id="linear-gradient-69" x1="0.093" y1="7.092" x2="-2.522" y2="12.664" xlink:href="#linear-gradient-9"/>
    <linearGradient id="linear-gradient-70" x1="0.135" y1="11.044" x2="-5.701" y2="19.444" xlink:href="#linear-gradient-9"/>
    <linearGradient id="linear-gradient-71" x1="0.53" y1="12.684" x2="-5.455" y2="22.016" xlink:href="#linear-gradient-9"/>
    <linearGradient id="linear-gradient-72" x1="0.539" y1="14.49" x2="-3.834" y2="25.48" xlink:href="#linear-gradient-9"/>
    <linearGradient id="linear-gradient-73" x1="0.341" y1="16.018" x2="-3.253" y2="28.811" xlink:href="#linear-gradient-9"/>
    <linearGradient id="linear-gradient-74" x1="-0.206" y1="0.669" x2="0.757" y2="0.274" xlink:href="#linear-gradient-9"/>
    <linearGradient id="linear-gradient-75" x1="-7.703" y1="2.73" x2="2.683" y2="-2.532" xlink:href="#linear-gradient-9"/>
    <linearGradient id="linear-gradient-76" x1="-1.67" y1="0.908" x2="2.343" y2="-0.209" xlink:href="#linear-gradient-54"/>
    <linearGradient id="linear-gradient-77" x1="-4.519" y1="0.623" x2="0.92" y2="-0.701" xlink:href="#linear-gradient-54"/>
  </defs>
  <g id="Ilustrace_Naše_služby_" data-name="Ilustrace (Naše služby)" transform="translate(49.594 -98.195)">
    <path id="Ilustrace_Naše_služby_background2" data-name="Ilustrace (Naše služby) background2" d="M799.291,336.86H5.846S-21.007,189.082,40.392,171.881s127.059-57.809,255-81c53.692-9.732,89.155-135.515,215.129-74.02S799.291,336.86,799.291,336.86Z" transform="translate(287.266 98.195) rotate(90)" fill="#de4e95" opacity="0.1"/>
    <path id="Ilustrace_Naše_služby_background1" data-name="Ilustrace (Naše služby) background1" d="M749.378,320H0S18.025-65.562,227.837,9.754,422.6,32.521,569.83,77.208,749.378,320,749.378,320Z" transform="translate(270.406 176.074) rotate(90)" fill="url(#linear-gradient)"/>
    <g id="Ilustrace_Naše_služby_clouds" data-name="Ilustrace (Naše služby) clouds" transform="translate(-1417.509 -91.849)">
      <path id="Path_4741" data-name="Path 4741" d="M251.931,9.792C239.316-4.141,203.711.448,156.868,1.863S.28-6.258,0,13.786s23.089,28.6,68.846,27.862c21.323-.343,61.411-4.959,61.411-4.959S176.713,55.281,205.2,55.313C240.086,55.351,274.461,33.057,251.931,9.792Z" transform="translate(1654.892 508.854) rotate(180)" fill="#fff" opacity="0.1"/>
      <path id="Path_4744" data-name="Path 4744" d="M3.469,38.65C18,48.549,59,45.289,112.939,44.283s69.9-25.841,30.642-28.268S-22.475,22.12,3.469,38.65Z" transform="translate(1512.16 401.949)" fill="#fff" opacity="0.1"/>
    </g>
    <g id="Ilustrace_Naše_služby_2" data-name="Ilustrace (Naše služby)" transform="translate(69 300.11)">
      <ellipse id="Ellipse_40" data-name="Ellipse 40" cx="162.672" cy="11.921" rx="162.672" ry="11.921" transform="translate(-69 377.405)" fill="#02263a" opacity="0.15"/>
      <g id="Rodina__rodinná_pomoc__-_Stínovaný">
        <g id="Group_1021" data-name="Group 1021">
          <g id="Group_1011" data-name="Group 1011" transform="translate(1.225 172.78)">
            <path id="Path_3991" data-name="Path 3991" d="M256.808,194.087a2067.092,2067.092,0,0,0-226.618.758c-12.522.7-28.039-8.769-29.121-21.748h0c-1.046-12.991,13.2-24.791,26.114-25.669a1627.31,1627.31,0,0,1,232.536.77c12.919.986,27.088,12.438,26.09,24.9h0c-1.046,12.45-16.455,21.591-28.989,20.99Z" transform="translate(-1.015 -143.643)" fill="url(#radial-gradient)"/>
            <g id="Group_1010" data-name="Group 1010" transform="translate(50.635)">
              <path id="Path_3992" data-name="Path 3992" d="M84.524,192.03q-18.71.523-37.409,1.371a106.775,106.775,0,0,1-2.346-47.669q19.2-1.01,38.4-1.552a184.681,184.681,0,0,0,1.359,47.838Z" transform="translate(-43.11 -143.535)" fill="url(#linear-gradient-2)"/>
              <path id="Path_3993" data-name="Path 3993" d="M139.362,191.369q-16.924-.072-33.848.108c-.854-15.926-1.034-31.852-.457-47.789q17.375-.126,34.751.12.776,23.8-.433,47.561Z" transform="translate(-30.612 -143.644)" fill="url(#linear-gradient-3)"/>
              <path id="Path_3994" data-name="Path 3994" d="M198.781,192.753q-18.71-.74-37.421-1.131a184.736,184.736,0,0,0,1.323-47.152q19.2.668,38.383,1.8a103.772,103.772,0,0,1-2.273,46.478Z" transform="translate(-19.123 -143.476)" fill="url(#linear-gradient-4)"/>
            </g>
          </g>
          <path id="Path_3995" data-name="Path 3995" d="M245.236,150.816q-3.789-.307-7.578-.589h0c-1.2-.108-2.418-.192-3.621-.277l-3.488-.253c-3.536-.253-7.085-.493-10.621-.722-.4-.024-.806-.06-1.2-.084q-5.828-.361-11.68-.674l-3.4-.18c-1.419-.072-2.839-.156-4.258-.217h0q-20.19-.956-40.392-1.323h0c-1.323-.036-2.658-.048-3.981-.072-1.131-.012-2.249-.036-3.368-.048q-11.818-.144-23.624-.084c-1.119,0-2.237.012-3.356.024-1.335,0-2.658.012-3.993.024h0q-20.208.235-40.4,1.059h0c-1.419.036-2.839.108-4.27.168-1.131.048-2.249.1-3.38.156q-5.846.271-11.692.589l-1.179.072q-5.323.307-10.633.65c-1.167.072-2.334.156-3.512.229-1.2.084-2.418.156-3.621.241h0c-2.526.192-5.064.361-7.59.553-11.716.878-16.106,12.678-15.156,25.669h0c.986,12.979,6.532,22.445,17.886,21.748,3.657-.241,7.325-.457,10.982-.662,1.095-.06,2.2-.132,3.3-.192,3.56-.2,7.121-.385,10.681-.565.277-.012.565-.024.842-.048q5.756-.289,11.5-.517c1.046-.048,2.093-.084,3.139-.132q23.708-.956,47.417-1.251l3.428-.036c3.729-.036,7.458-.072,11.187-.084h.493c3.741-.012,7.47-.012,11.211,0,1.119,0,2.249,0,3.368.012q23.726.126,47.453.9l3.139.108q5.774.2,11.535.433c.229,0,.469.024.7.036,3.609.156,7.229.313,10.838.493,1.083.048,2.165.108,3.26.156q5.5.271,11.006.589c11.367.6,16.816-8.54,17.766-20.99h0c.914-12.462-3.416-23.925-15.132-24.9Z" transform="translate(3.88 29.67)" fill="#010101" opacity="0.2"/>
          <g id="Postava7__muž__-_Stínovaný" transform="translate(53.419 58.517)">
            <path id="Path_3996" data-name="Path 3996" d="M79.991,73.044c-.373.156-.734.325-1.095.493l-.974.469c-1,.493-6.255,3.224-7.566,4.679C59.35,87.166,53.949,99.844,51.8,112.679c-2.081,12.281-8.841,24.61-7.109,33.632a6.64,6.64,0,0,0,2.358,4.042c3.224-9.515,15.589-4.571,19.558,1.528a27.682,27.682,0,0,0,3.32-1.335c6.808-3.308-2.935-35.147,20.268-54.249L82.529,72.01c-.866.325-1.708.662-2.538,1.022Z" transform="translate(-44.406 -43.911)" fill="url(#linear-gradient-5)"/>
            <path id="Path_3997" data-name="Path 3997" d="M69.923,150.544c5.317-2.6-21.291-22.361-13.52-40.524,9.563-22.385,26.126-38.01,26.126-38.01-.866.325-1.708.662-2.538,1.022-.373.156-.734.325-1.095.493l-.974.469h0c-.108.06-.217.108-.325.168-.349.18-.854.433-1.443.758-.373.2-.758.409-1.131.625h-.036c-.337.2-1.816,1.131-4.018,2.574a4.86,4.86,0,0,0-.613.565C59.35,87.166,53.949,99.844,51.8,112.679c-2.081,12.281-8.841,24.61-7.109,33.632a7.206,7.206,0,0,0,.337,1.191c.036.1.084.18.12.265a6.869,6.869,0,0,0,.349.734l.18.289c.144.217.3.433.457.638l.156.192a6.256,6.256,0,0,0,.758.734c.084-.253.18-.481.277-.71.012-.048.036-.1.048-.132.084-.192.18-.361.265-.541.036-.072.072-.156.108-.229.1-.168.192-.325.289-.481.048-.072.084-.144.132-.217.1-.144.2-.277.313-.409a2.2,2.2,0,0,1,.156-.192c.108-.12.217-.229.325-.349.06-.06.12-.132.18-.192a4.171,4.171,0,0,1,.349-.3c.072-.06.132-.12.192-.168l.361-.253.217-.144a3.9,3.9,0,0,1,.385-.2c.072-.036.144-.084.229-.12.132-.06.265-.108.4-.156a2.009,2.009,0,0,1,.241-.1c.132-.048.265-.084.4-.12.084-.024.18-.06.265-.084.132-.036.265-.06.4-.084.1-.024.192-.036.289-.06.132-.024.265-.036.4-.048a2.768,2.768,0,0,0,.313-.036c.132,0,.253,0,.385-.012h.337c.132,0,.253,0,.385.012a3.382,3.382,0,0,1,.349.012c.12,0,.253.024.373.036l.361.036a3,3,0,0,1,.349.06c.132.024.265.036.4.072s.229.048.349.084.265.06.409.1a3.319,3.319,0,0,1,.325.1c.144.036.277.072.421.12.108.036.2.072.313.108.144.048.289.1.433.156.1.036.192.072.277.108.156.06.3.12.457.18.1.036.18.084.277.12.156.072.3.132.457.2a2.546,2.546,0,0,1,.253.132c.156.084.313.156.469.241a2.235,2.235,0,0,1,.229.132c.156.084.313.18.469.265a1.961,1.961,0,0,1,.2.132c.156.1.313.192.469.3a1.963,1.963,0,0,0,.2.132c.156.108.3.2.457.313.06.048.12.084.18.132.156.108.3.229.445.337.048.048.108.084.156.132l.433.361a.828.828,0,0,0,.156.132c.144.12.277.253.409.373a1.442,1.442,0,0,1,.132.144c.132.132.265.265.385.4.048.048.084.1.132.144l.361.4a1.36,1.36,0,0,1,.12.156c.108.132.217.265.325.409.036.048.072.108.108.156.084.12.168.229.253.349a26.476,26.476,0,0,0,2.526-.878c.277-.12.565-.241.83-.373Z" transform="translate(-44.406 -43.911)" fill="#010101" opacity="0.2"/>
            <g id="Nohy1" transform="translate(26.984 134.993)">
              <path id="Nohy" d="M73.528,351.206h6.026s1.01-69.272,6.712-92.283c3.813-15.4,9.214-51.759,15.445-52.4,3.5-.361,20.677,42.413,22.59,52.4s-.156,22.926.517,25.777,21.254,53.683,21.856,67.937H154.1s-15.541-81.83-14.964-93.7-7.867-76.417-9.214-88.434c-1.78-16.01-63.463-10.717-60.564,6.243,1.492,8.649-4.078,35.568,1.6,82.191,1.383,11.391-3.524,16.094-4.114,31,.77,4.15,6.676,61.286,6.676,61.286Z" transform="translate(-66.84 -160.875)" fill="url(#linear-gradient-6)"/>
              <g id="Stíny" opacity="0.25">
                <path id="Path_3998" data-name="Path 3998" d="M123.642,279.655c-.686-2.851,1.383-15.793-.517-25.777s-18.211-60.732-25.6-55.873a13.246,13.246,0,0,0-1.708,2.382c4.463,3.248,20.076,41.571,21.892,51.1,1.913,9.972.553,22.89,1.227,25.741s21.254,53.684,21.856,67.937h4.463c-2.382-16.816-20.966-62.8-21.615-65.508Z" transform="translate(-60.961 -153.411)" fill="#010101"/>
                <path id="Path_3999" data-name="Path 3999" d="M88.78,198.388s10.525,2.839,18.139-4.848c0,0-1.985,7.061-8.793,8.5s-9.334-3.657-9.334-3.657Z" transform="translate(-62.389 -154.251)" fill="#010101"/>
                <path id="Path_4000" data-name="Path 4000" d="M80.384,266.905c-.337-5.461-1.564-11.1-.89-14.567S85.76,234.32,85.76,234.32Z" transform="translate(-64.313 -145.978)" fill="#010101"/>
                <path id="Path_4001" data-name="Path 4001" d="M69.835,292.605c.577-14.9,5.437-17.85,4.054-29.241-5.677-46.623,3.572-65.447,5.148-69.092,20.22-1.7,40.488-7.181,51.458-17.862.024-.241.024-.469.036-.7-.265-2.213-.481-3.993-.613-5.22-1.78-16.01-63.463-10.717-60.564,6.243,1.492,8.649-4.078,35.568,1.6,82.191,1.383,11.391-3.524,16.094-4.114,31,.77,4.15,6.676,61.286,6.676,61.286l1.72-.77C74.105,339.5,70.5,296.25,69.823,292.617Z" transform="translate(-66.84 -160.877)" fill="#010101"/>
              </g>
            </g>
            <g id="Rukáv" transform="translate(53.688 24.3)">
              <path id="Path_4002" data-name="Path 4002" d="M91.722,69.535c.4-.06.794-.12,1.179-.18.361-.048.722-.084,1.071-.132,1.107-.132,7-.662,8.9-.156,13.845,1.179,25.236,8.925,34,18.56,8.4,9.2,20.749,15.926,24.165,24.442a6.66,6.66,0,0,1,.2,4.679c-7.855-6.267-15.577,4.595-15.625,11.86a27.693,27.693,0,0,1-3.512.674c-7.518.9-16.539-31.154-46.382-34.666L89.04,70.04C89.942,69.836,90.832,69.68,91.722,69.535Z" transform="translate(-89.04 -68.852)" fill="url(#linear-gradient-7)"/>
              <g id="Stíny-2" transform="translate(22.758 6.481)" opacity="0.25">
                <path id="Path_4003" data-name="Path 4003" d="M126.568,100.5C123,85.282,120.061,78.33,114.756,74.24c-.854,2.622-1.864,5.22-2.61,7.879-1.071,3.8-2.2,7.59-3.055,11.451-.337,1.552-.674,3.416-1.131,5.3.241.144.493.265.722.409,16.924,10.2,23.708,29.614,29.59,28.9h.012l.722-.108a26.594,26.594,0,0,0,2.767-.662c.108-7.277-13.28-18.644-15.216-26.908Z" transform="translate(-107.96 -74.24)" fill="#010101"/>
              </g>
            </g>
            <g id="Vesta1" transform="translate(18.385)">
              <path id="Vesta" d="M69.168,202.749c-1.311-2.779.854-34.233-.168-54.068-1.708-33.042-24.177-63.4,7.554-75.13,19.258-7.121,43.339-5.052,53.708,3.26,5.954,4.775,1.672,7.867-2.406,55.331-2.586,30.132,8.191,53.792,3.452,58.8-4.607,4.884-58.687,19.1-62.152,11.812Z" transform="translate(-59.691 -44.477)" fill="url(#linear-gradient-8)"/>
              <g id="Krk" transform="translate(21.65)">
                <path id="Path_4004" data-name="Path 4004" d="M77.69,72.108s2.117,2.334,5.172,5.978a10.973,10.973,0,0,0,18.668-3.176l2.177-5.762S85.569,66.768,77.69,72.108Z" transform="translate(-77.69 -44.599)" fill="#603914"/>
                <path id="Path_4005" data-name="Path 4005" d="M79.62,70.925s.962,1.155,2.478,3.055A10.978,10.978,0,0,0,100.85,71.2l.9-2.237S86.127,66.511,79.62,70.925Z" transform="translate(-77.298 -44.667)" fill="url(#linear-gradient-9)"/>
                <path id="Path_4006" data-name="Path 4006" d="M80.012,74.908,77.69,50.37l20.028-1.72,4.427,24.31S88.407,83.052,80.012,74.92Z" transform="translate(-77.69 -48.65)" fill="url(#linear-gradient-10)"/>
              </g>
              <g id="Stíny-3" transform="translate(6.579 86.954)" opacity="0.25">
                <path id="Path_4007" data-name="Path 4007" d="M73.664,185.365c-1.323-2.779,1.347-21.9-.4-41.691-.794-9-8.107-22.734-8.107-22.734a118.672,118.672,0,0,1,2.73,17.249c1.022,19.823-1.155,51.29.168,54.068,3.464,7.3,57.545-6.928,62.152-11.812-9.9,1.347-51.506,15.529-56.546,4.92Z" transform="translate(-65.16 -120.94)" fill="#010101"/>
              </g>
            </g>
            <g id="Boty1" transform="translate(29.354 322.682)">
              <path id="Path_4008" data-name="Path 4008" d="M155.749,325.041H130.97s3.873-9,6.664-8.059c3.6,1.215,18.1,8.059,18.1,8.059Z" transform="translate(-56.2 -316.913)" fill="#1b1b1b"/>
              <path id="Path_4009" data-name="Path 4009" d="M83.93,325.041H68.81s3.873-9,6.664-8.059C79.07,318.2,83.93,325.041,83.93,325.041Z" transform="translate(-68.81 -316.913)" fill="#1b1b1b"/>
            </g>
            <path id="Path_4010" data-name="Path 4010" d="M113.919,74.235a60.843,60.843,0,0,0-8.588-1.022h0s-.589-.084-1.588-.18l.024-.072L99.34,48.65,79.313,50.37l2.322,24.538h0a13.323,13.323,0,0,0-2.322,1.251h0c-1.624.481-3.236.986-4.787,1.564a40.437,40.437,0,0,0-4.835,2.141S85.014,90.377,103.9,88.007c19.7-2.466,10.008-13.773,10.008-13.773Z" transform="translate(-39.278 -48.65)" fill="#010101" opacity="0.2"/>
            <path id="Path_4011" data-name="Path 4011" d="M124.476,126.772c.445-5.208,1.624-19.342.108-31.082,0,0-.974,11.728-2.706,18.825-6.459,26.475-5.256,43.459-8.853,44.915-7.386,2.983-13.472,2.2-36.615,5.1,0,.217,20.449,3.488,30.733,4.4,6.519.577,13.773.577,20.689,1.419-1.852-10.754-4.86-26.066-3.356-43.579Z" transform="translate(-37.914 -39.108)" fill="#010101" opacity="0.2"/>
          </g>
          <g id="Group_1018" data-name="Group 1018" transform="translate(127.7 11.715)">
            <path id="Path_4012" data-name="Path 4012" d="M136.938,81.291c-7.879-7.891-28.832-34.185-1.708-55.921,28.435-22.77,59.265,16,42.605,37.4A47.9,47.9,0,0,1,136.938,81.291Z" transform="translate(-102.993 -7.978)" fill="#712c36"/>
            <path id="Path_4013" data-name="Path 4013" d="M182.5,46.185v-.241a52.442,52.442,0,0,1-13.869,1.215,51.308,51.308,0,0,1-16.756-3.5h0a36.719,36.719,0,0,0,6.616,2.454C149.793,51.3,138.943,57.059,132.1,67.5c-2.045-9.563-7.734-24.466,6.279-32.429.625.541,1.371,1.131,2.189,1.744h0A21.738,21.738,0,0,1,133.53,25.4c-24.478,21.435-4.294,46.755,3.4,54.465a47.864,47.864,0,0,0,40.9-18.524c.409-.529.782-1.071,1.131-1.612.048-.084.108-.168.156-.241.325-.529.638-1.059.914-1.6l.144-.289c.277-.553.529-1.119.758-1.684.024-.048.036-.108.06-.156.217-.577.421-1.155.589-1.732a.65.65,0,0,1,.036-.12c.168-.589.313-1.179.433-1.78.024-.1.036-.192.06-.289.108-.577.2-1.167.265-1.756,0-.1.024-.192.024-.289.06-.6.108-1.215.12-1.816v-.1c0-.565,0-1.143-.024-1.708Z" transform="translate(-102.989 -6.565)" fill="#010101" opacity="0.2"/>
            <g id="Group_1012" data-name="Group 1012" transform="translate(11.423 164.826)">
              <path id="Path_4014" data-name="Path 4014" d="M115.973,192.948c-1.167-17.85,1.263-25.994,1.263-25.994,2.346-9.2,38.6-20.184,38.6-20.184,8.083,27.966,4.475,76.381,5.545,116.148.156,5.81-7.963,62.561-13.592,95.495h-4.222s3.837-90.166,2.9-95.495-5.353-54.778-5.353-54.778-4.571,46.695-6.243,67.937c-.986,12.558-12.185,82.335-12.185,82.335h-4.21s3.8-54.886,4.006-83.478c.229-31-6.05-74.782-6.519-81.987Z" transform="translate(-115.656 -146.77)" fill="url(#linear-gradient-11)"/>
              <path id="Path_4015" data-name="Path 4015" d="M150.529,324.385c-1.961-2.021-5.256-3.488-8.757-4.174-3.585-.7-4.342,4.174-4.342,4.174h13.087Z" transform="translate(-111.24 -111.6)" fill="#1b1b1b"/>
              <path id="Path_4016" data-name="Path 4016" d="M125.983,324.414c-.433-1.8-2.177-4.415-4.583-4.415-3.657,0-4.15,4.415-4.15,4.415h8.733Z" transform="translate(-115.333 -111.629)" fill="#1b1b1b"/>
            </g>
            <path id="Path_4017" data-name="Path 4017" d="M139.708,28.649c2.8-5.329-8.324-21.964-18.007-18.416s-13.292,9.2-8.841,24.406c2.129,7.313,2.466,28.123-6.7,32.429,6.147,1.371,20.184-1.84,24.9-14.675,8.252-22.445,8.661-23.744,8.661-23.744Z" transform="translate(-106.16 -9.741)" fill="#712c36"/>
            <path id="Path_4018" data-name="Path 4018" d="M140.028,25.4a4.227,4.227,0,0,0,.108-.7v-.072a7.572,7.572,0,0,0-.12-1.913,31.983,31.983,0,0,1-7.674,2.73c-8.588,1.888-16.72.217-21.327-3.813a39.894,39.894,0,0,0,1.864,10.573c1,3.416,1.6,9.791,1.022,16.058-.313,6.832-2.322,13.833-7.722,16.383,6.147,1.371,20.184-1.84,24.9-14.675,8.252-22.445,8.661-23.744,8.661-23.744a3,3,0,0,0,.253-.674c.012-.048.024-.108.036-.156Z" transform="translate(-106.156 -7.327)" fill="#010101" opacity="0.2"/>
            <path id="Path_4019" data-name="Path 4019" d="M146.19,104.218c1.239,5.1,10.308,32.393,13.8,31.731,8.216-1.552-7.037-36.11-7.037-36.11l-6.76,4.378Z" transform="translate(-98.04 8.536)" fill="#fbcd9d"/>
            <path id="Path_4020" data-name="Path 4020" d="M146.19,104.218c1.239,5.1,10.308,32.393,13.8,31.731,8.216-1.552-7.037-36.11-7.037-36.11l-6.76,4.378Z" transform="translate(-98.04 8.536)" fill="#010101" opacity="0.2"/>
            <path id="Path_4021" data-name="Path 4021" d="M157.909,132.43c5.605-.036,33.488-15.336,29.807-15.24-4.643.132-29.1,6.76-30.456,9.527s-.974,5.726.637,5.714Z" transform="translate(-95.962 12.055)" fill="url(#linear-gradient-12)"/>
            <path id="Path_4022" data-name="Path 4022" d="M176.942,121.464c-.253-1.431,4.583-2.129,4.439-7.422-.108-4.234,4.054-3.645,7.349-2.49,6.916,2.466,4.487,1.071,4.114,8.769-.132,2.706-1.889,2.514-7.734,1.624-4.643-.71-7.927,1.034-8.167-.469Z" transform="translate(-91.803 10.741)" fill="#fbcd9d"/>
            <path id="Path_4023" data-name="Path 4023" d="M149.018,134.111c4.619-.445,16.323-6.748,16.756-9.25s-15.06-43.507-18.993-40.127-6.315,30.288,2.237,49.377Z" transform="translate(-98.643 5.431)" fill="#64328a"/>
            <path id="Path_4024" data-name="Path 4024" d="M150.051,89.756c-1.985-3.38-2.285-5.87-3.26-5.028-3.933,3.38-6.315,30.288,2.237,49.377,2.622-.253,7.518-2.394,11.343-4.655-7.47-13.8-11.223-31.022-10.32-39.694Z" transform="translate(-98.641 5.437)" fill="#010101" opacity="0.2"/>
            <path id="Path_4025" data-name="Path 4025" d="M148.072,125.094s10.128-3.236,16.046-10.284l2.478,3.2c-4.282,5.786-10.056,8.576-16.96,10.549l-1.576-3.464Z" transform="translate(-97.66 11.573)" fill="url(#linear-gradient-13)"/>
            <path id="Path_4026" data-name="Path 4026" d="M112.87,190.653c12,5.449,30.3-8.769,48.307-8.528,0,0-4.2-23.107-3.284-38.973.818-14.1,10.645-20.04,10.645-20.04S158.206,89.914,155.162,86c-3.272-4.21-21-7.518-23.732-3.464-6,8.9-7.65,29.927-7.373,56.4.265,25.922-11.187,51.7-11.187,51.7Z" transform="translate(-104.799 4.653)" fill="url(#linear-gradient-14)"/>
            <path id="Path_4027" data-name="Path 4027" d="M131.34,80.919c.613,3.5,7.638,19.33,16.106,18.825s.325-16.166.325-16.166C141.288,80.246,136.452,79.849,131.34,80.919Z" transform="translate(-101.052 4.59)" fill="#cee9f1"/>
            <path id="Path_4028" data-name="Path 4028" d="M168.179,123.329a19.7,19.7,0,0,1-2.3.132c-11.295,0-20.713.541-23-7.939-1.8-6.7-7.157-31.178-7.807-34.7-1.528.277-3.1.878-3.657,1.7-6,8.9-7.65,29.927-7.373,56.4.265,25.922-11.187,51.7-11.187,51.7,3.789,1.72,8.2,1.48,13.039.361.084-.806.168-1.624.3-2.49,2.61-17.237,15.216-48.222,23.2-47.008,7.843,1.191,7.446,23.889,10.14,40.632.541-.024,1.083-.024,1.624-.024,0,0-4.2-23.107-3.284-38.973.734-12.522,8.552-18.6,10.284-19.8Z" transform="translate(-104.801 4.678)" fill="#010101" opacity="0.2"/>
            <path id="Path_4029" data-name="Path 4029" d="M125.12,115.132c.818,5.184,7.662,33.259,11.187,32.742,8.059-1.191-3.8-41.234-3.8-41.234l-7.386,8.492Z" transform="translate(-102.314 9.915)" fill="url(#linear-gradient-15)"/>
            <path id="Path_4030" data-name="Path 4030" d="M137.676,128.1c-1.949-10.585-5.16-21.447-5.16-21.447l-7.386,8.492a192.8,192.8,0,0,0,7.085,26.126c.132-6.5,2.418-11.848,5.461-13.171Z" transform="translate(-102.312 9.917)" fill="#010101" opacity="0.2"/>
            <path id="Path_4031" data-name="Path 4031" d="M121.993,130.967c4.631.289,16.672-2.442,17.49-4.835s-4.559-47.068-8.973-44.361-13.929,29-8.516,49.2Z" transform="translate(-103.277 4.846)" fill="#64328a"/>
            <path id="Path_4032" data-name="Path 4032" d="M127.248,105.011a67.745,67.745,0,0,1-.229-19.1c-4.427,9.13-9.226,28.5-5.016,44.193,2.911.18,8.769-.83,12.907-2.213-3.44-5.437-6.3-13.556-7.662-22.878Z" transform="translate(-103.276 5.71)" fill="#010101" opacity="0.2"/>
            <path id="Path_4033" data-name="Path 4033" d="M132.62,80.773c.589,3.115,6.676,16.9,13.64,16.455s-.144-14.386-.144-14.386c-5.665-3.248-9.358-3.4-13.5-2.081Z" transform="translate(-100.792 4.508)" fill="#fbcd9d"/>
            <path id="Path_4034" data-name="Path 4034" d="M144.107,68.9,133.715,64.46,132.56,83.886c2.9,4.006,11.9,3.669,13.231,2.225L144.1,68.9Z" transform="translate(-100.805 1.359)" fill="#fbcd9d"/>
            <path id="Path_4035" data-name="Path 4035" d="M151.483,108.9c4.956-.986,6.82-4.571,6.8-8.973a63.266,63.266,0,0,0-4.956-9,10.5,10.5,0,0,0-.938-1.624,9.714,9.714,0,0,0-3.609-2.418.874.874,0,0,0-.048-.084c-.445-.229-.866-.409-1.3-.613-.06-.12-.1-.2-.1-.2-.12-.072-.241-.12-.361-.192l-1.66-16.912L134.92,64.44l-1.155,19.426h.012c-.493.1-.986.168-1.48.277v.036c-.132.024-.265.036-.409.06h0c-.3.048-.577.12-.854.192-.12.036-.241.072-.361.1-.2.072-.409.144-.6.229-.168.072-.313.156-.469.241-.12.072-.253.144-.361.217-.06.048-.108.084-.156.12a10.386,10.386,0,0,0-2.466,3.2c6.977-1.756,14.9,22.325,24.827,20.328Z" transform="translate(-102.01 1.355)" fill="#010101" opacity="0.2"/>
            <path id="Path_4036" data-name="Path 4036" d="M151.227,97.173c6.279-3.079,19.246-12.859,23.925-31.755,1.768-7.157,3.873-15.4,1.2-22.7-9.719-26.535-32.489-8.5-40.608,1.84S131.092,89.583,151.227,97.173Z" transform="translate(-100.984 -5.853)" fill="url(#linear-gradient-16)"/>
            <path id="Path_4037" data-name="Path 4037" d="M138.31,49.577c.229-4.174-1.913-7.361-4.607-4.4-5.244,13.171-.662,42.088,17.514,48.932a.487.487,0,0,0,.108-.06C138.586,86.565,136.121,64.986,138.31,49.577Z" transform="translate(-100.985 -2.787)" fill="#010101" opacity="0.2"/>
            <path id="Path_4038" data-name="Path 4038" d="M147.039,58.218c.613-2.3,2.2-3.861,3.56-3.488s1.961,2.538,1.359,4.835-2.2,3.861-3.56,3.488S146.438,60.527,147.039,58.218Z" transform="translate(-97.915 -0.626)" fill="#010101"/>
            <path id="Path_4039" data-name="Path 4039" d="M160,61.687c.842-2.225,2.514-3.633,3.753-3.151s1.552,2.682.71,4.908-2.514,3.633-3.741,3.151-1.552-2.682-.722-4.908Z" transform="translate(-95.333 0.138)" fill="#010101"/>
            <path id="Path_4040" data-name="Path 4040" d="M166.576,62.912s-3-3.921-6.676-4.523c0,0,1.407-1.3,3.837-.036s2.839,4.559,2.839,4.559Z" transform="translate(-95.259 0.008)" fill="#010101"/>
            <path id="Path_4041" data-name="Path 4041" d="M146.02,55.667s4.787-1.239,8.155.6c0,0-.4-1.937-3.127-2.466s-5.016,1.852-5.016,1.852Z" transform="translate(-98.074 -0.818)" fill="#010101"/>
            <path id="Path_4042" data-name="Path 4042" d="M152.777,66.05c-.024.072-.084.108-.1.18-.289,1.347.95,2.73,2.743,3.115a3.668,3.668,0,0,0,2.755-.457c-.4,1.227-1.961,1.937-3.669,1.576-1.792-.373-3.019-1.768-2.743-3.115a2.115,2.115,0,0,1,1.01-1.3Z" transform="translate(-96.916 1.681)" fill="#010101" opacity="0.2"/>
            <path id="Path_4043" data-name="Path 4043" d="M169.213,57.44l-.469.421c-3.657-.854-6.147-4.571-6.664-6.556l1.443-.686c.18,1.66,2.49,5.545,5.677,6.82Z" transform="translate(-94.816 -1.449)" fill="#712c36"/>
            <path id="Path_4044" data-name="Path 4044" d="M147.562,52c4.451.385,10.08-2.514,11.295-3.416l.842,1.371A20.632,20.632,0,0,1,147.55,52.67V52Z" transform="translate(-97.764 -1.862)" fill="#712c36"/>
            <path id="Path_4045" data-name="Path 4045" d="M130.664,67.736c13.364-20.412,42.028-22.9,40.055-38.251S139.95,37.7,139.95,37.7c-14.687,7.939-11.367,20.352-9.286,30.035Z" transform="translate(-101.567 -6.788)" fill="#712c36"/>
            <path id="Path_4046" data-name="Path 4046" d="M144.16,39.414l-.06-.024Z" transform="translate(-98.464 -3.727)" fill="#010101" opacity="0.2"/>
            <path id="Path_4047" data-name="Path 4047" d="M157.227,44.482a36.719,36.719,0,0,1-6.616-2.454A37.175,37.175,0,0,1,139.3,35.184c-.818-.613-1.564-1.2-2.189-1.744-14.013,7.951-8.324,22.866-6.279,32.429C137.681,55.416,148.53,49.667,157.227,44.482Z" transform="translate(-101.739 -4.934)" fill="#010101" opacity="0.2"/>
            <path id="Path_4048" data-name="Path 4048" d="M128.149,57.087c1.684,7.386,6.724,11.908,9.106,7.145s.325-19.077-3.368-16.635-6.676,5.413-5.738,9.491Z" transform="translate(-101.735 -2.118)" fill="url(#linear-gradient-17)"/>
            <path id="Path_4049" data-name="Path 4049" d="M129.341,56.9c1.251,5.413,4.956,8.733,6.712,5.22s.229-14.013-2.478-12.209C130.845,51.707,128.656,53.908,129.341,56.9Z" transform="translate(-101.483 -1.634)" fill="#010101" opacity="0.2"/>
            <path id="Path_4050" data-name="Path 4050" d="M131.92,59.233c.6,2.658,2.418,4.27,3.272,2.55s.12-6.856-1.2-5.966S131.584,57.766,131.92,59.233Z" transform="translate(-100.947 -0.415)" fill="url(#linear-gradient-18)"/>
            <path id="Path_4051" data-name="Path 4051" d="M121.392,122.439s10.621-.265,18.283-5.389l1.48,3.765c-5.726,4.354-12.053,5.425-19.234,5.377l-.541-3.765Z" transform="translate(-103.073 12.027)" fill="url(#linear-gradient-19)"/>
            <path id="Path_4052" data-name="Path 4052" d="M188.287,119.778c-.06-.722-1.467-1.179-3.139-1.022s-2.959.866-2.887,1.588,1.467,1.179,3.139,1.022S188.359,120.5,188.287,119.778Z" transform="translate(-90.723 12.367)" fill="#fbcd9d"/>
            <path id="Path_4053" data-name="Path 4053" d="M189.077,117.428c-.072-.722-1.467-1.179-3.139-1.022s-2.959.866-2.887,1.588,1.467,1.179,3.139,1.022S189.149,118.149,189.077,117.428Z" transform="translate(-90.563 11.89)" fill="#fbcd9d"/>
            <path id="Path_4054" data-name="Path 4054" d="M189.367,115.048c-.072-.722-1.467-1.179-3.139-1.022s-2.959.866-2.887,1.588,1.467,1.179,3.139,1.022S189.439,115.769,189.367,115.048Z" transform="translate(-90.504 11.407)" fill="#fbcd9d"/>
            <path id="Path_4055" data-name="Path 4055" d="M183.775,113.626c.192-1.564.048-2.755-.854-2.875s-1.792,1.059-1.985,2.61.373,2.911,1.275,3.031,1.371-1.215,1.564-2.767Z" transform="translate(-90.999 10.748)" fill="#fbcd9d"/>
            <path id="Path_4056" data-name="Path 4056" d="M187,114.226c.192-1.552.036-2.755-.854-2.875s-1.792,1.046-1.985,2.61.373,2.911,1.275,3.031,1.371-1.2,1.564-2.767Z" transform="translate(-90.346 10.869)" fill="#fbcd9d"/>
            <path id="Path_4057" data-name="Path 4057" d="M190.287,115.176c.192-1.552.036-2.755-.866-2.875s-1.78,1.046-1.985,2.61.373,2.923,1.275,3.031,1.371-1.2,1.564-2.767Z" transform="translate(-89.68 11.062)" fill="#fbcd9d"/>
            <path id="Path_4058" data-name="Path 4058" d="M180.785,119.179c-1.5-.662.722-3.885,2.057-2.394S183.924,120.575,180.785,119.179Z" transform="translate(-91.124 11.894)" fill="#fbcd9d"/>
            <g id="Group_1016" data-name="Group 1016" transform="translate(51.116 65.396)">
              <path id="Path_4059" data-name="Path 4059" d="M184.76,117.723c3.993-1.72,31.96-1.095,38.347-5.437l.349-1.335s-29.386-2.213-32.694-3.151-6,9.912-6,9.912Z" transform="translate(-141.331 -55.257)" fill="url(#linear-gradient-20)"/>
              <path id="Path_4060" data-name="Path 4060" d="M223.066,110.85l-.241.914c-6.387,4.342-32.8,3.488-36.8,5.208a48.534,48.534,0,0,0,2.358-4.547c7.831-1.419,25.585.986,34.678-1.576Z" transform="translate(-141.074 -54.626)" fill="#010101" opacity="0.2"/>
              <g id="Group_1013" data-name="Group 1013" transform="translate(79.442 53.464)">
                <path id="Path_4061" data-name="Path 4061" d="M214.712,112.175c2.346.192,5.1,1.768,6.471,1.54,1.071-.18,2.057-2.622,1.516-3.055s-7.109.529-7.109.529l-.89.986Z" transform="translate(-214.7 -108.152)" fill="url(#linear-gradient-21)"/>
                <path id="Path_4062" data-name="Path 4062" d="M217.575,111.2a28.4,28.4,0,0,0,3.753-2.574c.433-.253.734.241-.144,1.215s-1.431,1.022-1.155,1.612C220.329,112.085,216.9,111.5,217.575,111.2Z" transform="translate(-214.135 -108.556)" fill="url(#linear-gradient-22)"/>
                <path id="Path_4063" data-name="Path 4063" d="M220.707,111.665c1.383-.229,4.679-.758,4.619-1.143s-4.956.192-4.956.192l.337.95Z" transform="translate(-213.55 -108.183)" fill="url(#linear-gradient-23)"/>
                <path id="Path_4064" data-name="Path 4064" d="M220.534,112.384c1.323.072,4.475.253,4.487-.12s-4.631-.854-4.631-.854l.156.974Z" transform="translate(-213.546 -107.976)" fill="url(#linear-gradient-24)"/>
                <path id="Path_4065" data-name="Path 4065" d="M219.36,113.3c1.275.325,4.294,1.119,4.4.746s-4.294-1.732-4.294-1.732l-.108.974Z" transform="translate(-213.755 -107.794)" fill="url(#linear-gradient-25)"/>
              </g>
              <g id="Group_1014" data-name="Group 1014" transform="translate(13.577 17.585)">
                <path id="Path_4066" data-name="Path 4066" d="M166.4,89.1c-1.323-1.9-4.006-3.44-4.5-4.727-.385-1.01,1.191-3.115,1.828-2.875s3.067,6.339,3.067,6.339l-.385,1.275Z" transform="translate(-159.558 -78.17)" fill="url(#linear-gradient-26)"/>
                <path id="Path_4067" data-name="Path 4067" d="M165.452,85.6a28.378,28.378,0,0,1,.313-4.535c0-.505-.565-.505-.95.746s-.156,1.756-.782,1.816c-.7.072,1.5,2.694,1.431,1.961Z" transform="translate(-159.141 -78.317)" fill="url(#linear-gradient-27)"/>
                <path id="Path_4068" data-name="Path 4068" d="M163.3,83.265c-.493-1.311-1.672-4.39-1.311-4.535s2.285,4.33,2.285,4.33l-.962.2Z" transform="translate(-159.541 -78.727)" fill="url(#linear-gradient-28)"/>
                <path id="Path_4069" data-name="Path 4069" d="M162.852,83.687c-.71-1.095-2.43-3.681-2.105-3.885s3.007,3.512,3.007,3.512Z" transform="translate(-159.788 -78.511)" fill="url(#linear-gradient-29)"/>
                <path id="Path_4070" data-name="Path 4070" d="M162.766,85.041c-.9-.926-3.055-3.091-2.8-3.368s3.572,2.767,3.572,2.767Z" transform="translate(-159.943 -78.133)" fill="url(#linear-gradient-30)"/>
              </g>
              <path id="Path_4071" data-name="Path 4071" d="M181.878,124.68C180.771,120.41,165.507,94.8,164.99,87.1l.806-1.143s18.38,22.914,21.266,25.019c2.923,2.129-5.184,13.7-5.184,13.7Z" transform="translate(-145.342 -59.675)" fill="url(#linear-gradient-31)"/>
              <path id="Path_4072" data-name="Path 4072" d="M189.551,110.488c9.755,3.753,25.958,3.272,30.5-11.1,5.148-16.287-9.322-27.509-22.277-28.592s-8.216,39.694-8.216,39.694Z" transform="translate(-140.529 -62.756)" fill="url(#linear-gradient-32)"/>
              <path id="Path_4073" data-name="Path 4073" d="M165,86.989l.18-.253.108-.156c2.827,9.575,16.371,30.7,17.911,34.991-.589.926-1.131,1.732-1.54,2.322C179.494,118.131,165.493,94.375,165,87Z" transform="translate(-145.34 -59.55)" fill="#010101" opacity="0.2"/>
              <path id="Path_4074" data-name="Path 4074" d="M197.768,70.8c8.071.674,16.732,5.281,20.87,12.594-5.425,4.956,2.947,11.138,1.419,15.986-4.535,14.374-20.749,14.855-30.5,11.1,0,0-4.739-40.777,8.216-39.694Z" transform="translate(-140.531 -62.758)" fill="#010101" opacity="0.2"/>
              <path id="Path_4075" data-name="Path 4075" d="M148.661,165.143c.6,12.065,12.846,12.678,17.634,10.742,26.487-10.681,24.093-42.437,30.216-55.728,4.487-9.743,2.309-11.415,1.768-11.992s-9.743-2.093-11.114-1.371c-4.186,2.2-16.72,17.477-18.211,21.17C167.883,130.6,148.276,157.541,148.661,165.143Z" transform="translate(-148.655 -55.488)" fill="url(#linear-gradient-33)"/>
              <path id="Path_4076" data-name="Path 4076" d="M181.43,108.822l3.32-7.782,7.482,2.911-2.177,4.908Z" transform="translate(-142.007 -56.616)" fill="#f8b683"/>
              <path id="Path_4077" data-name="Path 4077" d="M190.44,112.393c1.2,2.261,9.322,6.9,14.386,2.755,2.478-2.021.794-7.109.794-7.109s9.851-1.648,11.6-9.31c.818-3.6-2.526-7.782-4.98-8.023,0,0,9.527-2.37,8.468-8.985-1.083-6.772-9.142-5.641-9.142-5.641s5.557-9.334-2.346-11.584-10.056,6.123-10.056,6.123-3.512-4.715-8.408-.277c-2.454,2.225-4.908,11.511-2.237,15.36,3.488,5.04,1.913,26.7,1.913,26.7Z" transform="translate(-140.805 -64.108)" fill="url(#linear-gradient-34)"/>
              <path id="Path_4078" data-name="Path 4078" d="M207.538,87.763a22.364,22.364,0,0,0,11.968-3.188c-2.394,3.115-7.253,4.318-7.253,4.318,2.454.241,5.81,4.427,4.98,8.023-1.756,7.662-11.6,9.31-11.6,9.31s1.672,5.088-.794,7.109c-5.076,4.15-13.2-.493-14.386-2.755,0,0,1.588-21.663-1.913-26.7-1.72-2.478-1.311-7.193-.156-10.838.613,8.107,8.925,14.6,19.161,14.723Z" transform="translate(-140.798 -62.296)" fill="#010101" opacity="0.2"/>
              <path id="Path_4079" data-name="Path 4079" d="M180.888,114.8c-4.643-1.6-4.619-8.564-1.359-12.293,1.455,1.684,2.743,3.127,3.7,4.114l2.382-5.593,7.47,2.911-2.129,4.823a8.434,8.434,0,0,1,1.347.4h0a58.02,58.02,0,0,0,5.93.83c-5.882,0-10.044,7.325-17.345,4.811Z" transform="translate(-142.86 -56.618)" fill="#010101" opacity="0.2"/>
              <path id="Path_4080" data-name="Path 4080" d="M203.2,106.86c-4.619,4.968-17.2,8.769-24.189-2.346-3.609-5.738.217-14.134,5.605-19.8,4.354-4.595,11.872-16.046,20.653-10.874,7.746,4.559,6.195,24.129-2.069,33.006Z" transform="translate(-142.785 -62.4)" fill="url(#linear-gradient-35)"/>
              <path id="Path_4081" data-name="Path 4081" d="M218.34,110.3c-.457,2.43-3.789,6.062-5.172,4.643s.77-5,.77-5l4.4.349Z" transform="translate(-135.663 -54.811)" fill="url(#linear-gradient-36)"/>
              <ellipse id="Ellipse_29" data-name="Ellipse 29" cx="0.698" cy="0.529" rx="0.698" ry="0.529" transform="translate(78.357 58.399) rotate(-73.85)" fill="#010101"/>
              <path id="Path_4082" data-name="Path 4082" d="M165.852,84.58c-1.66,1.612-2.43,6.447-.385,7.025S169,88.453,169,88.453l-3.151-3.873Z" transform="translate(-145.494 -59.955)" fill="url(#linear-gradient-37)"/>
              <path id="Path_4083" data-name="Path 4083" d="M166.5,88.825a.653.653,0,0,0-.036-.9.608.608,0,0,0-.866.108.652.652,0,0,0,.036.9A.608.608,0,0,0,166.5,88.825Z" transform="translate(-145.252 -59.305)" fill="#010101"/>
              <g id="Group_1015" data-name="Group 1015" transform="translate(40.595 20.476)">
                <path id="Path_4084" data-name="Path 4084" d="M186.278,91.99a2.9,2.9,0,0,1,1.768.072l-.072.241a2.16,2.16,0,0,0-1.3.024c-.674.313-.517,1.66.662,2.189l-.1.337c-1.708-.589-1.949-2.478-.974-2.851Z" transform="translate(-181.736 -78.952)" fill="#010101" opacity="0.2"/>
                <path id="Path_4085" data-name="Path 4085" d="M182.435,101.4c.12-.132.625-.048,1.131.192s.806.529.674.662-.625.048-1.131-.192S182.3,101.533,182.435,101.4Z" transform="translate(-182.404 -77.032)" fill="#010101" opacity="0.2"/>
                <path id="Path_4086" data-name="Path 4086" d="M184.139,100.949c2.177,1.167,2.8-3.416,1.215-4.547S181.3,99.434,184.139,100.949Z" transform="translate(-182.316 -78.072)" fill="#010101"/>
                <path id="Path_4087" data-name="Path 4087" d="M200.288,93.519a19.443,19.443,0,0,0-3.488-6.375l.866-.734A16.443,16.443,0,0,1,201.3,92.5l-1,1.01Z" transform="translate(-179.484 -80.06)" fill="url(#linear-gradient-38)"/>
                <path id="Path_4088" data-name="Path 4088" d="M191.878,84.077a16.467,16.467,0,0,0-6.808-1.684l.132-1.239a13.849,13.849,0,0,1,6.724,1.359Z" transform="translate(-181.863 -81.131)" fill="url(#linear-gradient-39)"/>
              </g>
              <path id="Path_4089" data-name="Path 4089" d="M203.673,76.9c-4.451.457-8.228-3.416-4.787-6.616s6.207.83,6.207.83-3.512-.565-3.753,1.167c3.2,1.191,2.334,4.607,2.334,4.607Z" transform="translate(-138.737 -63.105)" fill="url(#linear-gradient-40)"/>
              <ellipse id="Ellipse_30" data-name="Ellipse 30" cx="2.418" cy="1.287" rx="2.418" ry="1.287" transform="translate(55.126 34.526) rotate(-57.7)" fill="#010101"/>
              <ellipse id="Ellipse_31" data-name="Ellipse 31" cx="2.418" cy="1.287" rx="2.418" ry="1.287" transform="translate(43.535 26.95) rotate(-57.7)" fill="#010101"/>
            </g>
            <path id="Path_4090" data-name="Path 4090" d="M133.687,141.639c3.717,3.945,46.623,14.663,50.6,13.231-1.419-1.48-45.083-19.655-47.922-18.572-2.8,1.059-4.09,3.849-2.682,5.341Z" transform="translate(-100.693 15.922)" fill="url(#linear-gradient-41)"/>
            <g id="Group_1017" data-name="Group 1017" transform="translate(72.087 166.895)">
              <path id="Path_4091" data-name="Path 4091" d="M178.5,151.849c-.577-.734-.854-1.528-1.191-1.239a1.749,1.749,0,0,0,.108,2.1c.589.722,1.431,1.107,1.768.818s-.108-.95-.7-1.672Z" transform="translate(-163.874 -148.072)" fill="#f4ad7d"/>
              <path id="Path_4092" data-name="Path 4092" d="M174.838,154.67c-.337-1.107-.445-2.105.084-2.334s1.251.493,1.588,1.6.168,2.189-.373,2.418-.962-.577-1.3-1.684Z" transform="translate(-164.373 -147.717)" fill="#f4ad7d"/>
              <path id="Path_4093" data-name="Path 4093" d="M177.274,152.859c-.77-.9-1.131-1.876-1.564-1.516a2.117,2.117,0,0,0,.192,2.6c.77.89,2.021,1.215,2.454.866s-.313-1.034-1.083-1.949Z" transform="translate(-164.211 -147.927)" fill="#f4ad7d"/>
              <path id="Path_4094" data-name="Path 4094" d="M166.1,150.98c3.067.6,7.819,6.5,9.442,4.162,1.467-2.081.854-7.434-8.733-6.556l-.722,2.394Z" transform="translate(-166.09 -148.49)" fill="#fbcd9d"/>
              <path id="Path_4095" data-name="Path 4095" d="M170.88,149.062c-2.791,3.536,1.311,6.688,2.851,7.374,1.7.734,4.511-1.407,4.667-2.911s-6.435-5.81-7.518-4.451Z" transform="translate(-165.311 -148.424)" fill="#fbcd9d"/>
              <path id="Path_4096" data-name="Path 4096" d="M176.768,153.254c1.985.854,3.236.83,3.44.265s-.962-.986-2.935-1.84-4.246-2.454-4.451-1.889,1.985,2.61,3.957,3.464Z" transform="translate(-164.727 -148.25)" fill="#fbcd9d"/>
              <path id="Path_4097" data-name="Path 4097" d="M175.555,154.482c1.768,1.071,3.224.722,3.524.229s-1.624-1.083-3.38-2.153-2.983-1.672-3.284-1.167,1.383,2.021,3.139,3.1Z" transform="translate(-164.814 -147.938)" fill="#fbcd9d"/>
              <path id="Path_4098" data-name="Path 4098" d="M173.777,155.761c2.093,1.239,3.236,1.107,3.524.589s-1.263-1.095-3.356-2.322-3.585-2.069-3.861-1.564S171.684,154.522,173.777,155.761Z" transform="translate(-165.285 -147.714)" fill="#fbcd9d"/>
              <path id="Path_4099" data-name="Path 4099" d="M174.67,151.581c2.574-.241,3.524-1.6,3.127-2.49-.132-.3-6.772-1.155-7.133.229-.253.974,1.431,2.5,4.006,2.249Z" transform="translate(-165.167 -148.477)" fill="#fbcd9d"/>
              <path id="Path_4100" data-name="Path 4100" d="M178.3,149.671c.842.108,1.648-.3,1.612.481-.024.613-1.01,1.01-1.852.878-1.552-.241-4.246-.3-1.961-2.129.421-.337,1.287.662,2.189.782Z" transform="translate(-164.239 -148.42)" fill="#fbcd9d"/>
            </g>
            <path id="Path_4101" data-name="Path 4101" d="M151.05,78.082c-5.136-.373-3.849-3.151.048-3.031S157.738,78.563,151.05,78.082Z" transform="translate(-97.74 3.507)" fill="#010101"/>
          </g>
          <g id="Group_1020" data-name="Group 1020" transform="translate(0 179.47)">
            <path id="Path_4102" data-name="Path 4102" d="M261.73,195.81a1082.921,1082.921,0,0,1-236.2.77C12.4,195.2-1.539,182.711.133,169.78H.145c1.732-12.907,17.706-21.627,30.192-20.473a1222.642,1222.642,0,0,0,226.762.746c12.522-1.059,28.375,7.337,30.035,19.715h0c1.612,12.4-12.269,24.55-25.38,26.03Z" transform="translate(0.004 -149.205)" fill="url(#linear-gradient-42)"/>
            <g id="Group_1019" data-name="Group 1019" transform="translate(32.601 0.848)">
              <path id="Path_4103" data-name="Path 4103" d="M71.389,200.659Q49.936,199.4,28.52,197.29a88.3,88.3,0,0,1,4.475-47.38q20.551,1.84,41.15,3A144.516,144.516,0,0,0,71.4,200.659Z" transform="translate(-27.099 -149.91)" fill="url(#linear-gradient-43)"/>
              <path id="Path_4104" data-name="Path 4104" d="M144.6,201.437q-21.489.505-42.978.144a437.087,437.087,0,0,1,.9-47.8q20.6.415,41.222.132a460.636,460.636,0,0,1,.854,47.525Z" transform="translate(-12.04 -149.125)" fill="url(#linear-gradient-44)"/>
              <path id="Path_4105" data-name="Path 4105" d="M218.214,196.461q-21.381,2.255-42.834,3.645a143.18,143.18,0,0,0-2.67-46.887q20.6-1.01,41.186-2.718a84.91,84.91,0,0,1,4.33,45.973Z" transform="translate(2.439 -149.79)" fill="url(#linear-gradient-45)"/>
            </g>
          </g>
          <g id="Hlava1" transform="translate(73.702)">
            <path id="Path_4106" data-name="Path 4106" d="M97.234,12.131c-12.979-2.177-25.344,2.67-32.67-3.8-.938,3.945,2.285,7.422,2.285,7.422C60.811,20.671,60.318,28,62.375,35.515c3.3,12.041,14.711,21.651,17.874,25.308L102.262,29.7c1.816-.553,4.607-3.115,7.085-6.5-4.282.036-7.53-10.308-12.1-11.078Z" transform="translate(-61.267 1.688)" fill="url(#linear-gradient-46)"/>
            <path id="Path_4107" data-name="Path 4107" d="M79.186,14.9c-1.576,1.431-1.84,5.16-1.684,7.133,0,0-7.205-6.315-13.592-3.019,0,0,3.56-6.7,15.276-4.126Z" transform="translate(-60.733 2.899)" fill="url(#linear-gradient-47)"/>
            <path id="Path_4108" data-name="Path 4108" d="M114.088,8.275C110.972.2,90.115-1.42,78.868,1.082,56.278,6.11,66.839,17.429,66.839,17.429c-6.038,4.92-6.531,12.245-4.475,19.763,3.3,12.041,14.711,21.651,17.874,25.308l22.012-31.118c4.487-1.359,15-15,11.848-23.119Z" transform="translate(-61.269 -0.002)" fill="#412413"/>
            <path id="Path_4109" data-name="Path 4109" d="M79.727,51.734l3.56-.072s.854-37.325-7.506-36.892-3.007,16.9-3.007,16.9l6.94,20.064Z" transform="translate(-59.277 2.993)" fill="#412413"/>
            <path id="Tvář" d="M78.317,32.342s-4.4,28.869,1.48,33.62,23.335,11.475,24.418,8.889c4.932-11.776,7.229-30.541,5.461-38.082-.553-2.382,2.454-4.054,2.069-6.05-2.49-13.063-11.716-20.545-20.894-18.344C80.29,14.9,79.039,22.057,78.317,32.354Z" transform="translate(-58.131 2.431)" fill="url(#linear-gradient-48)"/>
            <path id="Stín" d="M106.982,28.467a1.638,1.638,0,0,0-.758-.325c-7.59-.89-5.064,6.387-5.774,14.23-.553,6.111-1.876,10.982,2.863,16.323.2-.806.409-1.66.6-2.526,1.7-8.973,2.165-17.983,1.071-22.674-.457-1.961,1.516-3.452,2-5.04Z" transform="translate(-53.442 5.692)" fill="#010101" opacity="0.25"/>
            <g id="Stíny-4" transform="translate(18.622 14.685)" opacity="0.25">
              <path id="Path_4110" data-name="Path 4110" d="M101.74,28.11c-.229,1-2.622,8.661-8.143,8.817s.926-8.6.926-8.6l7.229-.2Z" transform="translate(-73.786 -8.985)" fill="#010101"/>
              <path id="Path_4111" data-name="Path 4111" d="M83.294,64.883c-5.87-4.763-1.467-33.62-1.467-33.62.662-9.25,1.756-15.95,9.611-19.053-.192.036-.385.048-.577.1C80.3,14.832,79.047,21.989,78.326,32.286A159.911,159.911,0,0,0,76.81,48.6c.986-.144,2.033,1.371,2.1,2.334.277,3.524-1.155,3.1-2.165,1.72.048,5.978.782,11.427,3.055,13.267,4.908,3.981,17.923,9.322,22.686,9.454-5.8-2.057-15.144-7.205-19.186-10.477Z" transform="translate(-76.75 -12.21)" fill="#010101"/>
            </g>
            <path id="Vlasy" d="M75.088,36.841c2.658,1.828,7.77,6.195,6.026,15.336l3.741-.024s2.791-31.779-5.317-32.381S75.1,36.853,75.1,36.853Z" transform="translate(-58.632 4.006)" fill="#412413"/>
            <g id="Ucho" transform="translate(12.375 41.339)">
              <path id="Path_4112" data-name="Path 4112" d="M81.665,41.924c-.3-3.837-5.437-10.489-9.058-6.123C67.411,42.056,83.264,62.2,81.665,41.924Z" transform="translate(-71.557 -34.369)" fill="url(#linear-gradient-49)"/>
              <path id="Path_4113" data-name="Path 4113" d="M79.068,44.795c-.1-1.191-1.684-3.248-2.8-1.9C74.653,44.831,79.561,51.086,79.068,44.795Z" transform="translate(-70.668 -32.729)" fill="#f9c196"/>
            </g>
            <path id="Stín-2" d="M76.738,43.838c.938-1.131,2.2.12,2.646,1.263a13.089,13.089,0,0,0,.024-2.959c-.168-2.2-3.127-6.026-5.2-3.512-1.768,2.129.7,7.049,2.815,8.288-.589-1.046-.878-2.358-.289-3.067Z" transform="translate(-58.766 7.666)" fill="#010101" opacity="0.25"/>
            <g id="Oči" transform="translate(38.602 37.585)">
              <path id="Path_4114" data-name="Path 4114" d="M93.552,33.933c.409-1.624,1.347-2.827,2.081-2.67s1.022,1.576.6,3.2-1.347,2.827-2.081,2.682-1.01-1.576-.6-3.2Z" transform="translate(-93.36 -31.249)" fill="#010101"/>
              <path id="Path_4115" data-name="Path 4115" d="M101.4,34.476c.289-1.636,1.143-2.911,1.913-2.815s1.167,1.492.89,3.127-1.131,2.9-1.913,2.815S101.128,36.111,101.4,34.476Z" transform="translate(-91.746 -31.166)" fill="#010101"/>
            </g>
            <g id="Obočí" transform="translate(38.434 30.556)">
              <path id="Path_4116" data-name="Path 4116" d="M105.795,30.987a1.478,1.478,0,0,0,1.455-2.526c-1.431-1.419-3.909-3.139-4.222-2.815a1.662,1.662,0,0,0-.565,2.153c.361.794,1.3,1.84,3.332,3.2Z" transform="translate(-91.386 -25.363)" fill="#412413"/>
              <path id="Path_4117" data-name="Path 4117" d="M94.807,29.946c-1.263.361-2.622-1.84-.409-2.9,2.081-.974,5.353-1.949,5.533-1.552a1.605,1.605,0,0,1-.337,2.261c-.722.674-2.117,1.419-4.775,2.177Z" transform="translate(-93.221 -25.404)" fill="#412413"/>
            </g>
            <path id="Brada" d="M99.949,57.595c-.072.385-1.034-.349-2.237-.553s-2.2.18-2.141-.2,1.167-.974,2.382-.77,2.081,1.143,2,1.516Z" transform="translate(-54.311 11.363)" fill="#010101" opacity="0.25"/>
            <path id="Nos" d="M102.122,30.04s4.727,21.712,4.03,22.554S95.1,51.812,94.881,51.1s5.509-19.077,7.241-21.062Z" transform="translate(-54.451 6.092)" fill="url(#linear-gradient-50)"/>
            <path id="Path_4118" data-name="Path 4118" d="M98.474,54.683c-2.093-.144-3.681.854-3.9.253-.313-.866,1.155-2.165,3.464-2.1,2.093.06,3.777,1.431,3.921,2.273.12.734-.4-.217-3.488-.433Z" transform="translate(-54.521 10.714)" fill="#010101"/>
          </g>
          <g id="Ruka_pravá" transform="translate(55.393 155.456)">
            <path id="Path_4119" data-name="Path 4119" d="M86.136,165.458c-17.02-9.3-34.895-12.786-38.78-23.347-2.971-8.071-.409-11.98,4.066-12.846,2.273-.445,11.547,5.653,14.843,10.633,6.784,10.26,9.058,14.615,21.7,24.189Z" transform="translate(-46.042 -129.241)" fill="url(#linear-gradient-51)"/>
            <path id="Path_4120" data-name="Path 4120" d="M52.883,143.381c-2.237-5.75,1.01-9.334,3.8-10.152,1.347-.4,5.882,2.309,4.631,1.275-.192-.144-.385-.3-.577-.445-.06-.048-.12-.1-.192-.144-.337-.253-.674-.493-1.022-.734-.036-.024-.06-.036-.1-.06-.313-.217-.613-.421-.926-.626-.084-.048-.156-.108-.241-.156-.325-.216-.638-.421-.962-.613-.06-.036-.12-.072-.192-.12-.277-.168-.541-.325-.806-.481-.072-.036-.144-.084-.217-.12-.3-.168-.589-.337-.878-.481-.06-.036-.12-.06-.192-.1-.253-.132-.493-.253-.734-.361l-.144-.072q-.4-.18-.758-.325c-.048-.024-.108-.036-.156-.06a4.721,4.721,0,0,0-.625-.2.171.171,0,0,1-.072-.024,3.846,3.846,0,0,0-.565-.108h-.12a2.736,2.736,0,0,0-.445,0c-4.475.866-7.037,4.775-4.066,12.846,3.885,10.549,21.76,14.049,38.78,23.347l1.215-.9c-14.9-5.377-31.334-13.111-34.474-21.17Z" transform="translate(-46.048 -129.236)" fill="#010101" opacity="0.25"/>
            <g id="Dlaň" transform="translate(30.952 29.264)">
              <path id="Path_4121" data-name="Path 4121" d="M71.78,155.35c3.524,1.492,7.542,7.241,9.479,5.2,1.732-1.84,1.684-6.928-8.336-6.977Z" transform="translate(-71.78 -153.57)" fill="#f9c196"/>
              <path id="Path_4122" data-name="Path 4122" d="M77.065,154.384c-3.284,3.079.625,6.423,2.153,7.205,1.672.854,4.823-.914,5.148-2.334s-6.05-6.062-7.3-4.884Z" transform="translate(-70.967 -153.446)" fill="#f9c196"/>
              <path id="Path_4123" data-name="Path 4123" d="M81.648,156.783c2.706-.277,5.726-1.744,5.413-2.61-.349-.986-2.73.71-5.172.421-2.646-.313-4.342-.373-4.595.553s1.648,1.913,4.354,1.636Z" transform="translate(-70.666 -153.511)" fill="#f9c196"/>
              <path id="Path_4124" data-name="Path 4124" d="M84.935,159.856c2.189,1.022,3.657,1.131,3.969.577s-.986-1.059-3.188-2.093-4.631-2.815-4.932-2.273,1.961,2.743,4.15,3.777Z" transform="translate(-69.959 -153.084)" fill="#f9c196"/>
              <path id="Path_4125" data-name="Path 4125" d="M83.068,161.533c1.913,1.419,4.378,1.888,4.787,1.407s-1.732-1.419-3.633-2.839-3.236-2.249-3.657-1.768.6,1.768,2.5,3.188Z" transform="translate(-70.017 -152.632)" fill="#f9c196"/>
              <path id="Path_4126" data-name="Path 4126" d="M80.458,162.012c1.973,1.347,3.476,1.708,3.885,1.215s-1.119-1.155-3.1-2.514-3.38-2.273-3.789-1.78S78.474,160.653,80.458,162.012Z" transform="translate(-70.643 -152.509)" fill="#f9c196"/>
            </g>
          </g>
        </g>
      </g>
      <g id="Postava14__holka_" transform="translate(-68.996 178.873)">
        <g id="Postava14__holka_-2" transform="translate(-0.004 -0.002)">
          <g id="Group_1096" data-name="Group 1096" transform="translate(52.421 139.45)">
            <path id="Path_4824" data-name="Path 4824" d="M48.683,166.29h1.368L48.294,96.84,36.4,99.187Z" transform="translate(-36.4 -96.84)" fill="url(#linear-gradient-52)"/>
            <path id="Path_4825" data-name="Path 4825" d="M43.125,134.7c1.8-.49,4.1,1.656,6.264,5.4L48.294,96.84,36.4,99.187,42.923,134.8a1,1,0,0,1,.2-.086Z" transform="translate(-36.4 -96.84)" fill="#010101" opacity="0.2"/>
            <path id="Path_4826" data-name="Path 4826" d="M49.943,147.76H40.67s4.781-5.27,5.875-5.27,3.413,5.27,3.413,5.27Z" transform="translate(-34.521 -76.755)" fill="#412413"/>
          </g>
          <g id="Group_1097" data-name="Group 1097" transform="translate(68.506 139.45)">
            <path id="Path_4827" data-name="Path 4827" d="M62.7,166.29h1.354l-4.68-69.45L47.58,99.187Z" transform="translate(-47.566 -96.84)" fill="url(#linear-gradient-52)"/>
            <path id="Path_4828" data-name="Path 4828" d="M61.653,130.708,59.363,96.84,47.57,99.187l9.489,42.1c1.094-5.63,2.722-9.547,4.594-10.584Z" transform="translate(-47.57 -96.84)" fill="#010101" opacity="0.2"/>
            <path id="Path_4829" data-name="Path 4829" d="M57.08,147.919H68.7s-8.582-5.789-9.95-5.789S57.08,147.919,57.08,147.919Z" transform="translate(-43.386 -76.914)" fill="#412413"/>
          </g>
          <g id="Group_1099" data-name="Group 1099" transform="translate(15.387)">
            <path id="Path_4830" data-name="Path 4830" d="M68.2,90.084c-24.249,6.811-47-1.742-51.508-4.766,0,0,13.853-14.731,8.165-21.484C10.371,46.669,3.66,30.944,21.113,9.042,34.937-8.281,57.242,4.621,57.242,4.621c9.777-9.057,20.995-2.189,25.329,4.262,11.52,17.193,14.342,73.136-14.357,81.2Z" transform="translate(-10.675 0.004)" fill="url(#linear-gradient-54)"/>
            <g id="Group_1098" data-name="Group 1098">
              <path id="Path_4831" data-name="Path 4831" d="M33.042,61.185C8.548,29.549,31.761-6.321,57.234,4.623h0S34.929-8.293,21.1,9.044C3.638,30.946,10.363,46.67,24.849,63.835c5.7,6.753-8.165,21.484-8.165,21.484s30.729-5.544,16.344-24.134Z" transform="translate(-10.681 0.002)" fill="#010101" opacity="0.2"/>
              <path id="Path_4832" data-name="Path 4832" d="M53.695,65.73c-.331.115-.634.23-.965.346C53.061,65.975,53.378,65.845,53.695,65.73Z" transform="translate(7.819 28.922)" fill="url(#linear-gradient-55)"/>
              <path id="Path_4833" data-name="Path 4833" d="M56.51,64.638c.3-.13.576-.288.864-.418C57.086,64.364,56.812,64.508,56.51,64.638Z" transform="translate(9.482 28.258)" fill="url(#linear-gradient-56)"/>
              <path id="Path_4834" data-name="Path 4834" d="M55.684,64.99c-.331.144-.648.288-.994.418C55.036,65.278,55.352,65.12,55.684,64.99Z" transform="translate(8.681 28.597)" fill="url(#linear-gradient-57)"/>
            </g>
          </g>
          <path id="Path_4835" data-name="Path 4835" d="M31.229,33.44c-3.139-6.019-10.771,5.069-3.1,7.344C33.706,42.44,32.266,35.428,31.229,33.44Z" transform="translate(10.925 13.938)" fill="url(#linear-gradient-58)"/>
          <path id="Path_4836" data-name="Path 4836" d="M29.155,33.769c-2.621-3.182-5.774,4.363-.922,4.766C31.762,38.823,30.019,34.82,29.155,33.769Z" transform="translate(11.314 14.517)" fill="#010101" opacity="0.2"/>
          <path id="Path_4837" data-name="Path 4837" d="M29.259,35.149c-1.642-1.987-3.6,2.722-.576,2.966C30.886,38.288,29.791,35.8,29.259,35.149Z" transform="translate(11.931 15.253)" fill="url(#linear-gradient-59)"/>
          <path id="Path_4838" data-name="Path 4838" d="M60.285,74.564c20.16-20.217,44.6-46.958,44.6-46.958l-.029-2.016S60.228,61.417,54.54,67.536s-5.789,18.6,5.746,7.027Z" transform="translate(22.347 11.262)" fill="url(#linear-gradient-60)"/>
          <path id="Path_4839" data-name="Path 4839" d="M23.87,139.349c18.417,7.128,54.561,9.029,70.415,3.211,0,0-21.7-82.251-23.126-84.527-4.752-7.589-23.817-3.384-27.489,2.981-4.766,8.294-11.045,57.4-19.785,78.335Z" transform="translate(10.509 23.745)" fill="url(#linear-gradient-61)"/>
          <path id="Path_4840" data-name="Path 4840" d="M43.4,59.709c-4.2,9.691-11.635,59.629-19.526,78.133,4.493,2.146,10.469,4.061,19.44,4.81,7.1-33.868,12.341-98.278.086-82.943Z" transform="translate(10.509 25.252)" fill="#010101" opacity="0.2"/>
          <path id="Path_4841" data-name="Path 4841" d="M51.073,47.06l-9.273,1.4.936,11.549,11.52,6.264L54.342,57Z" transform="translate(18.397 20.708)" fill="#f8b683"/>
          <path id="Path_4842" data-name="Path 4842" d="M41.162,73.841c2.246-7.632,2.722-14.213,1.051-14.7s-5.155,5.357-6.451,13.2-1.9,13.939-.23,14.429S38.915,81.473,41.162,73.841Z" transform="translate(15.191 26.01)" fill="#010101" opacity="0.2"/>
          <path id="Path_4843" data-name="Path 4843" d="M50.308,67.459C29.961,46.68,6.46,26.42,6.46,26.42l-.95.763S36.1,66,41.985,72.643c1.771,1.987,10.929,11.491,12.816,12.3a30.884,30.884,0,0,0,1.166-8.093c-.13-4.392-2.333-5.976-5.659-9.374Z" transform="translate(2.431 11.627)" fill="url(#linear-gradient-62)"/>
          <path id="Path_4844" data-name="Path 4844" d="M25.273,110.834l-1.613,3.686c19.958,9.014,55.266,8.913,71.135,3.773,0,0-.547-1.7-1.224-3.758-18.345,6.034-50.111,3.341-68.312-3.715Z" transform="translate(10.416 48.761)" fill="url(#linear-gradient-63)"/>
          <g id="Group_1100" data-name="Group 1100" transform="translate(121.137 29.646)">
            <path id="Path_4845" data-name="Path 4845" d="M84.134,33.8c3.269-2.059,8.625-2.419,10.152-4.147,1.2-1.339-.23-6.077-1.426-6.221s-8.669,7.949-8.669,7.949l-.072,2.4Z" transform="translate(-84.12 -19.335)" fill="url(#linear-gradient-64)"/>
            <path id="Path_4846" data-name="Path 4846" d="M86.182,29.22c1.123-2.347,1.742-6.883,2.03-7.7s1.224-.374,1.166,2-.734,3.01.288,3.629c1.109.677-4.018,3.211-3.485,2.088Z" transform="translate(-83.23 -20.344)" fill="url(#linear-gradient-65)"/>
            <path id="Path_4847" data-name="Path 4847" d="M90.638,27.028c1.555-1.757,5.256-5.875,4.738-6.408s-6.235,5.27-6.235,5.27l1.5,1.123Z" transform="translate(-81.911 -20.586)" fill="url(#linear-gradient-66)"/>
            <path id="Path_4848" data-name="Path 4848" d="M91.142,27.623c1.814-1.224,6.12-4.1,5.7-4.694s-6.984,3.355-6.984,3.355Z" transform="translate(-81.595 -19.582)" fill="url(#linear-gradient-67)"/>
            <path id="Path_4849" data-name="Path 4849" d="M90.64,29.341c2.03-.792,6.84-2.606,6.566-3.283s-7.517,1.67-7.517,1.67Z" transform="translate(-81.669 -18.233)" fill="url(#linear-gradient-68)"/>
          </g>
          <g id="Group_1101" data-name="Group 1101" transform="translate(0 25.022)">
            <path id="Path_4850" data-name="Path 4850" d="M10.426,34.266C8.252,31.084,3.486,28.607,2.78,26.4c-.562-1.714,2.635-5.486,3.787-5.126s4.766,10.757,4.766,10.757Z" transform="translate(1.201 -15.668)" fill="url(#linear-gradient-69)"/>
            <path id="Path_4851" data-name="Path 4851" d="M8.556,28.5c-.086-2.606,1.152-7.013,1.224-7.877s-.979-.835-1.872,1.368S7.375,25.042,6.194,25.2C4.9,25.373,8.6,29.751,8.556,28.5Z" transform="translate(2.61 -16.178)" fill="url(#linear-gradient-70)"/>
            <path id="Path_4852" data-name="Path 4852" d="M5.342,25.144c-.72-2.232-2.462-7.473-1.786-7.761s3.614,7.329,3.614,7.329Z" transform="translate(1.504 -17.374)" fill="url(#linear-gradient-71)"/>
            <path id="Path_4853" data-name="Path 4853" d="M4.841,25.576c-1.166-1.858-3.96-6.206-3.355-6.581s5.069,5.861,5.069,5.861Z" transform="translate(0.623 -16.669)" fill="url(#linear-gradient-72)"/>
            <path id="Path_4854" data-name="Path 4854" d="M4.754,27.4C3.213,25.875-.473,22.275.045,21.771s6.221,4.536,6.221,4.536L4.754,27.4Z" transform="translate(0.004 -15.456)" fill="url(#linear-gradient-73)"/>
          </g>
          <path id="Path_4855" data-name="Path 4855" d="M61.966,57.9a16.4,16.4,0,0,0-4.421-.763V57.1l-1.368-4.162L54.334,46.83l-9.3,1.152.029.562H45L45.19,50.8l.475,8.453a18.239,18.239,0,0,0-4.738,2.707C40.078,60.7,34.52,55.4,34.52,55.4c.85,2.938,9.648,17.438,12.024,20.16,1.742,2,6.537,3.3,9.259,2.909,13.493-1.9,7.718-19.843,12.254-26.078-2.808,2.419-4.954,4.349-6.077,5.5Z" transform="translate(15.194 20.607)" fill="#010101" opacity="0.2"/>
          <g id="Group_1105" data-name="Group 1105" transform="translate(32.001 13.152)">
            <path id="Path_4856" data-name="Path 4856" d="M58.319,64.439C42,67.607,32.27,63.128,28.915,49.233S26.7,10.9,48.844,9.187c14.7-1.138,17.208,15.523,21.384,22.924,5.069,9,5.53,28.943-11.909,32.327Z" transform="translate(-19.899 -9.131)" fill="url(#linear-gradient-74)"/>
            <g id="Group_1102" data-name="Group 1102" transform="translate(30.025 32.412)">
              <path id="Path_4857" data-name="Path 4857" d="M51.246,34.045a6.122,6.122,0,0,0-2.635-2.4l-2.75,4.838c3.283,1.627,6.249-.562,5.386-2.448Z" transform="translate(-41.842 -31.64)" fill="#010101" opacity="0.2"/>
              <path id="Path_4858" data-name="Path 4858" d="M50.142,33.81A4.61,4.61,0,0,0,48.2,31.88L45.98,35.754C48.471,36.848,50.689,35.206,50.142,33.81Z" transform="translate(-41.79 -31.534)" fill="url(#linear-gradient-75)"/>
              <path id="Path_4859" data-name="Path 4859" d="M46.684,44.76c.086-.23-.533-.5-1.483-.648-1.109-.158-2.131-.043-2.131.259,0,.274.907.562,1.93.648.893.072,1.613-.043,1.7-.259Z" transform="translate(-43.07 -26.184)" fill="#010101" opacity="0.2"/>
            </g>
            <path id="Path_4860" data-name="Path 4860" d="M46.332,18.706,44.7,16.92c-.835,1.6-6.84,6.307-12.485,5.8l.72,4.046s9.4-.418,13.377-8.064Z" transform="translate(-17.818 -5.705)" fill="url(#linear-gradient-76)"/>
            <path id="Path_4861" data-name="Path 4861" d="M48,18.624l.562-1.814c.662,1.325,4.882,4.982,9.849,4.032L57.6,25.1S50.88,24.413,48,18.624Z" transform="translate(-10.876 -5.753)" fill="url(#linear-gradient-77)"/>
            <g id="Group_1103" data-name="Group 1103" transform="translate(16.27 23.452)">
              <path id="Path_4862" data-name="Path 4862" d="M43.913,26.919c.115-.245-1.44-.749-3.485-1.123s-3.787-.49-3.917-.259,1.44.749,3.485,1.123S43.8,27.149,43.913,26.919Z" transform="translate(-32.203 -25.418)" fill="#834c3e"/>
              <path id="Path_4863" data-name="Path 4863" d="M43.342,26.548c.1-.274-2-.331-4.723-.158s-4.982.547-5.1.821,2,.331,4.723.158S43.226,26.822,43.342,26.548Z" transform="translate(-33.518 -25.033)" fill="#834c3e"/>
              <path id="Path_4864" data-name="Path 4864" d="M47.161,28.283c-3.4-4.277-8.525-2.088-12.211,4.493C42.006,26.814,44.684,26.872,47.161,28.283Z" transform="translate(-32.887 -25.126)" fill="#834c3e"/>
            </g>
            <g id="Group_1104" data-name="Group 1104" transform="translate(36.736 21.509)">
              <path id="Path_4865" data-name="Path 4865" d="M56.491,24.172c0-.274-1.627.014-3.6.648s-3.586,1.354-3.571,1.613,1.627-.014,3.6-.648S56.506,24.431,56.491,24.172Z" transform="translate(-47.03 -24.068)" fill="#834c3e"/>
              <path id="Path_4866" data-name="Path 4866" d="M58.1,26.154c.1-.245-1.5-.634-3.557-.864s-3.816-.216-3.917.029,1.5.634,3.557.864S58,26.4,58.1,26.154Z" transform="translate(-46.455 -23.603)" fill="#834c3e"/>
              <path id="Path_4867" data-name="Path 4867" d="M47.73,27.563c2.434-3.845,6.379-2.866,11.16,3.413-7.358-5.3-9.331-4.91-11.16-3.413Z" transform="translate(-47.73 -23.529)" fill="#834c3e"/>
            </g>
            <path id="Path_4868" data-name="Path 4868" d="M45.439,44.047c3.542.461,6.566-1.987,3.758-3.9S38.138,43.1,45.439,44.047Z" transform="translate(-13.297 4.319)" fill="#010101"/>
            <path id="Path_4869" data-name="Path 4869" d="M58.013,29.556A15.52,15.52,0,0,0,56.4,28.62c2.376.2,5.026,1.31,5.256,3.01a2.941,2.941,0,0,1-.043,1.138,15.64,15.64,0,0,0-3.6-3.211Z" transform="translate(-7.18 -0.557)" fill="#73b3dc"/>
            <path id="Path_4870" data-name="Path 4870" d="M60.812,27.972c-.648-.043-1.267-.058-1.872-.043,2.16-.979,5.04-1.3,6.048.072a3.266,3.266,0,0,1,.518,1.022A15.993,15.993,0,0,0,60.8,27.972Z" transform="translate(-6.062 -1.234)" fill="#73b3dc"/>
            <path id="Path_4871" data-name="Path 4871" d="M60.817,34.394A11.075,11.075,0,0,0,60.27,33.3c1.2.936,2.246,2.506,1.8,3.528a2.28,2.28,0,0,1-.4.634A10.623,10.623,0,0,0,60.817,34.394Z" transform="translate(-5.477 1.502)" fill="#73b3dc"/>
            <path id="Path_4872" data-name="Path 4872" d="M64.19,30.762a9.672,9.672,0,0,0-1.08-.562c1.526.058,3.283.706,3.528,1.8a2.249,2.249,0,0,1,.043.749,10.632,10.632,0,0,0-2.491-1.987Z" transform="translate(-4.228 0.138)" fill="#73b3dc"/>
            <path id="Path_4873" data-name="Path 4873" d="M32.644,30.476c.49-.662.994-1.3,1.5-1.886-2.606,1.613-5.227,4.291-4.925,6.091a2.6,2.6,0,0,0,.418,1.094,23.637,23.637,0,0,1,3.01-5.3Z" transform="translate(-19.15 -0.57)" fill="#73b3dc"/>
            <path id="Path_4874" data-name="Path 4874" d="M27.62,30.638c.778-.3,1.541-.547,2.29-.778-3.053-.058-6.725.778-7.445,2.462a2.559,2.559,0,0,0-.245,1.152A24.063,24.063,0,0,1,27.62,30.638Z" transform="translate(-22.219 -0.012)" fill="#73b3dc"/>
            <path id="Path_4875" data-name="Path 4875" d="M25.605,36.745c.158-.461.331-.907.518-1.325-1.339,1.411-2.419,3.4-1.728,4.291a1.639,1.639,0,0,0,.576.49,11.263,11.263,0,0,1,.634-3.47Z" transform="translate(-21.356 2.435)" fill="#73b3dc"/>
          </g>
        </g>
      </g>
    </g>
  </g>
</svg>
